<svg width="40" height="40" viewBox="0 0 40 40" fill="none" xmlns="http://www.w3.org/2000/svg">
<rect width="40" height="40" rx="20" fill="#D0D0C8"/>
<path d="M27.868 10.625H12.132C11.3 10.625 10.625 11.3 10.625 12.132V27.868C10.625 28.7 11.3 29.375 12.132 29.375H27.868C28.7 29.375 29.375 28.7 29.375 27.868V12.132C29.375 11.3 28.7 10.625 27.868 10.625V10.625ZM27.868 27.875C17.3727 27.8727 12.125 27.8703 12.125 27.868C12.1273 17.3727 12.1297 12.125 12.132 12.125C22.6273 12.1273 27.875 12.1297 27.875 12.132C27.8727 22.6273 27.8703 27.875 27.868 27.875ZM13.4047 17.6539H16.1867V26.6023H13.4047V17.6539ZM14.7969 16.4305C15.6852 16.4305 16.4094 15.7086 16.4094 14.818C16.4094 14.6062 16.3677 14.3965 16.2866 14.2009C16.2056 14.0053 16.0868 13.8275 15.9371 13.6778C15.7874 13.528 15.6096 13.4092 15.414 13.3282C15.2183 13.2472 15.0086 13.2055 14.7969 13.2055C14.5851 13.2055 14.3754 13.2472 14.1798 13.3282C13.9842 13.4092 13.8064 13.528 13.6567 13.6778C13.5069 13.8275 13.3882 14.0053 13.3071 14.2009C13.2261 14.3965 13.1844 14.6062 13.1844 14.818C13.182 15.7086 13.9039 16.4305 14.7969 16.4305ZM20.7102 22.175C20.7102 21.0078 20.9328 19.8781 22.3789 19.8781C23.8039 19.8781 23.825 21.2117 23.825 22.25V26.6023H26.6047V21.6945C26.6047 19.2852 26.0844 17.4312 23.2695 17.4312C21.9172 17.4312 21.0102 18.1742 20.6375 18.8773H20.6V17.6539H17.9305V26.6023H20.7102V22.175Z" fill="black"/>
</svg>
