<svg width="1647" height="1647" viewBox="0 0 1647 1647" fill="none" xmlns="http://www.w3.org/2000/svg">
<path d="M707.881 654.398C580.342 751.931 477.863 859.176 415.268 953.699C383.969 1000.96 362.667 1045.01 353.174 1083.04C343.678 1121.08 346.019 1152.99 361.828 1176.12C377.637 1199.26 405.54 1211.62 442.659 1214.01C479.772 1216.4 525.986 1208.82 578.224 1192.2C682.692 1158.96 811.088 1089.64 938.626 992.111C1066.16 894.578 1168.64 787.333 1231.24 692.81C1262.54 645.546 1283.84 601.499 1293.33 563.467C1302.83 525.428 1300.49 493.522 1284.68 470.384C1268.87 447.246 1240.97 434.889 1203.85 432.498C1166.73 430.108 1120.52 437.693 1068.28 454.312C963.815 487.549 835.419 556.864 707.881 654.398Z" stroke="url(#paint0_linear_8969_2934)" stroke-width="1.55132"/>
<path d="M704.558 656.978C578.381 756.461 477.507 865.181 416.407 960.512C385.855 1008.18 365.272 1052.47 356.425 1090.55C347.576 1128.63 350.489 1160.39 366.753 1183.18C383.016 1205.96 411.218 1217.79 448.485 1219.51C485.748 1221.24 531.96 1212.86 584.053 1195.36C688.233 1160.38 815.77 1089.01 941.947 989.531C1068.12 890.048 1169 781.329 1230.1 685.997C1260.65 638.328 1281.23 594.044 1290.08 555.964C1298.93 517.878 1296.02 486.116 1279.75 463.332C1263.49 440.548 1235.29 428.724 1198.02 426.998C1160.76 425.273 1114.55 433.653 1062.45 451.144C958.272 486.126 830.736 557.495 704.558 656.978Z" stroke="url(#paint1_linear_8969_2934)" stroke-width="1.55132"/>
<path d="M701.274 659.608C576.497 761.01 477.258 871.171 417.671 967.283C387.876 1015.34 368.018 1059.85 359.82 1097.97C351.62 1136.09 355.104 1167.7 371.818 1190.12C388.531 1212.54 417.022 1223.83 454.428 1224.89C491.828 1225.95 538.024 1216.78 589.957 1198.42C693.817 1161.7 820.456 1088.3 945.233 986.899C1070.01 885.497 1169.25 775.336 1228.84 679.225C1258.63 631.166 1278.49 586.658 1286.69 548.542C1294.89 510.42 1291.4 478.81 1274.69 456.387C1257.98 433.965 1229.48 422.678 1192.08 421.617C1154.68 420.557 1108.48 429.729 1056.55 448.088C952.69 484.804 826.051 558.206 701.274 659.608Z" stroke="url(#paint2_linear_8969_2934)" stroke-width="1.55132"/>
<path d="M698.026 662.289C574.686 765.579 477.114 877.149 419.058 974.011C390.028 1022.44 370.902 1067.16 363.356 1105.3C355.807 1143.45 359.861 1174.9 377.02 1196.95C394.178 1219.01 422.95 1229.75 460.482 1230.15C498.008 1230.54 544.175 1220.58 595.932 1201.36C699.439 1162.92 825.142 1087.51 948.481 984.219C1071.82 880.929 1169.39 769.36 1227.45 672.498C1256.48 624.064 1275.6 579.345 1283.15 541.205C1290.7 503.059 1286.65 471.611 1269.49 449.557C1252.33 427.502 1223.56 416.755 1186.02 416.361C1148.5 415.966 1102.33 425.927 1050.57 445.148C947.068 483.587 821.365 558.999 698.026 662.289Z" stroke="url(#paint3_linear_8969_2934)" stroke-width="1.55132"/>
<path d="M694.816 665.019C572.951 770.166 477.075 883.11 420.568 980.692C392.313 1029.49 373.924 1074.4 367.031 1112.55C360.137 1150.71 364.76 1181.99 382.358 1203.67C399.955 1225.35 429 1235.55 466.647 1235.28C504.288 1235.01 550.411 1224.26 601.976 1204.19C705.1 1164.04 829.828 1086.64 951.692 981.49C1073.56 876.343 1169.43 763.4 1225.94 665.817C1254.19 617.022 1272.58 572.107 1279.48 533.954C1286.37 495.795 1281.75 464.52 1264.15 442.839C1246.55 421.159 1217.51 410.956 1179.86 411.228C1142.22 411.499 1096.1 422.246 1044.53 442.323C941.407 482.473 816.68 559.872 694.816 665.019Z" stroke="url(#paint4_linear_8969_2934)" stroke-width="1.55132"/>
<path d="M691.644 667.796C571.293 774.768 477.142 889.051 422.201 987.325C394.729 1036.47 377.083 1081.56 370.846 1119.72C364.608 1157.88 369.798 1188.97 387.83 1210.27C405.862 1231.57 435.171 1241.23 472.921 1240.29C510.665 1239.35 556.73 1227.82 608.087 1206.9C710.796 1165.05 834.511 1085.68 954.863 978.712C1075.21 871.74 1169.37 757.457 1224.31 659.183C1251.78 610.043 1269.42 564.945 1275.66 526.791C1281.9 488.631 1276.71 457.537 1258.68 436.237C1240.65 414.938 1211.34 405.281 1173.59 406.219C1135.84 407.156 1089.78 418.686 1038.42 439.612C935.711 481.462 811.996 560.824 691.644 667.796Z" stroke="url(#paint5_linear_8969_2934)" stroke-width="1.55132"/>
<path d="M688.513 670.621C569.711 779.385 477.314 894.973 423.956 993.908C397.275 1043.38 380.377 1088.65 374.798 1126.79C369.218 1164.94 374.974 1195.84 393.435 1216.75C411.895 1237.67 441.459 1246.77 479.301 1245.17C517.137 1243.57 563.13 1231.26 614.264 1209.49C716.527 1165.95 839.191 1084.65 957.993 975.887C1076.8 867.123 1169.19 751.535 1222.55 652.6C1249.23 603.129 1266.13 557.862 1271.71 519.718C1277.29 481.569 1271.53 450.666 1253.07 429.753C1234.61 408.841 1205.05 399.735 1167.21 401.338C1129.37 402.941 1083.38 415.25 1032.24 437.019C929.98 480.555 807.315 561.857 688.513 670.621Z" stroke="url(#paint6_linear_8969_2934)" stroke-width="1.55132"/>
<path d="M685.424 673.491C568.207 784.014 477.592 900.872 425.834 1000.44C399.953 1050.22 383.808 1095.65 378.889 1133.77C373.968 1171.9 380.288 1202.6 399.172 1223.12C418.056 1243.64 447.865 1252.19 485.788 1249.92C523.703 1247.65 569.61 1234.57 620.506 1211.96C722.291 1166.75 843.868 1083.54 961.085 973.015C1078.3 862.492 1168.92 745.634 1220.68 646.068C1246.56 596.282 1262.7 550.859 1267.62 512.737C1272.54 474.61 1266.22 443.907 1247.34 423.389C1228.45 402.87 1198.64 394.316 1160.72 396.584C1122.81 398.852 1076.9 411.937 1026 434.543C924.218 479.752 802.641 562.968 685.424 673.491Z" stroke="url(#paint7_linear_8969_2934)" stroke-width="1.55132"/>
<path d="M682.375 676.409C566.779 788.657 477.974 906.749 427.83 1006.92C402.757 1057 387.37 1102.57 383.112 1140.65C378.853 1178.75 385.734 1209.24 405.036 1229.36C424.337 1249.48 454.384 1257.48 492.375 1254.55C530.359 1251.61 576.166 1237.76 626.808 1214.32C728.084 1167.45 848.536 1082.35 964.131 970.099C1079.73 857.85 1168.53 739.759 1218.68 639.592C1243.75 589.505 1259.14 543.94 1263.39 505.853C1267.65 467.759 1260.77 437.266 1241.47 417.147C1222.17 397.028 1192.12 389.029 1154.13 391.962C1116.15 394.895 1070.34 408.751 1019.7 432.187C918.422 479.055 797.971 564.16 682.375 676.409Z" stroke="url(#paint8_linear_8969_2934)" stroke-width="1.55132"/>
<path d="M679.371 679.37C565.431 793.309 478.463 912.599 429.949 1013.34C405.691 1063.71 391.067 1109.4 387.471 1147.44C383.875 1185.49 391.316 1215.76 411.029 1235.48C430.743 1255.19 461.017 1262.63 499.065 1259.04C537.107 1255.44 582.8 1240.82 633.172 1216.56C733.909 1168.04 853.198 1081.08 967.138 967.137C1081.08 853.197 1168.05 733.908 1216.56 633.171C1240.82 582.799 1255.44 537.106 1259.04 499.064C1262.63 461.016 1255.19 430.742 1235.48 411.028C1215.77 391.315 1185.49 383.874 1147.44 387.47C1109.4 391.066 1063.71 405.69 1013.34 429.948C912.6 478.462 793.31 565.43 679.371 679.37Z" stroke="url(#paint9_linear_8969_2934)" stroke-width="1.55132"/>
<path d="M676.408 682.376C564.16 797.972 479.055 918.423 432.186 1019.7C408.751 1070.34 394.894 1116.15 391.962 1154.13C389.029 1192.12 397.028 1222.17 417.147 1241.47C437.266 1260.77 467.759 1267.65 505.853 1263.4C543.94 1259.14 589.505 1243.75 639.592 1218.68C739.758 1168.53 857.85 1079.73 970.098 964.132C1082.35 848.537 1167.45 728.085 1214.32 626.809C1237.76 576.167 1251.61 530.36 1254.54 492.376C1257.48 454.385 1249.48 424.338 1229.36 405.037C1209.24 385.735 1178.75 378.854 1140.65 383.113C1102.57 387.371 1057 402.758 1006.92 427.831C906.748 477.975 788.657 566.78 676.408 682.376Z" stroke="url(#paint10_linear_8969_2934)" stroke-width="1.55132"/>
<path d="M673.492 685.424C562.969 802.641 479.753 924.217 434.544 1026C411.938 1076.9 398.853 1122.8 396.585 1160.72C394.316 1198.64 402.87 1228.45 423.389 1247.34C443.908 1266.22 474.61 1272.54 512.738 1267.62C550.859 1262.7 596.282 1246.56 646.069 1220.67C745.635 1168.92 862.492 1078.3 973.015 961.084C1083.54 843.867 1166.75 722.291 1211.96 620.506C1234.57 569.61 1247.65 523.703 1249.92 485.787C1252.19 447.865 1243.64 418.055 1223.12 399.171C1202.6 380.287 1171.9 373.968 1133.77 378.888C1095.65 383.808 1050.22 399.952 1000.44 425.833C900.872 477.592 784.015 568.207 673.492 685.424Z" stroke="url(#paint11_linear_8969_2934)" stroke-width="1.55132"/>
<path d="M670.62 688.513C561.856 807.316 480.554 929.98 437.018 1032.24C415.249 1083.38 402.94 1129.37 401.337 1167.21C399.733 1205.05 408.84 1234.61 429.752 1253.07C450.665 1271.53 481.568 1277.29 519.717 1271.71C557.861 1266.13 603.128 1249.23 652.599 1222.55C751.534 1169.19 867.122 1076.8 975.886 957.994C1084.65 839.191 1165.95 716.527 1209.49 614.264C1231.26 563.13 1243.57 517.137 1245.17 479.301C1246.77 441.459 1237.67 411.895 1216.75 393.435C1195.84 374.974 1164.94 369.218 1126.79 374.798C1088.65 380.377 1043.38 397.276 993.907 423.956C894.972 477.314 779.384 569.711 670.62 688.513Z" stroke="url(#paint12_linear_8969_2934)" stroke-width="1.55132"/>
<path d="M667.795 691.644C560.823 811.995 481.461 935.71 439.611 1038.42C418.685 1089.78 407.155 1135.84 406.218 1173.59C405.28 1211.34 414.937 1240.64 436.236 1258.68C457.536 1276.71 488.63 1281.9 526.79 1275.66C564.944 1269.42 610.042 1251.78 659.182 1224.31C757.456 1169.36 871.739 1075.21 978.711 954.862C1085.68 834.511 1165.05 710.796 1206.89 608.087C1227.82 556.729 1239.35 510.664 1240.29 472.92C1241.23 435.17 1231.57 405.861 1210.27 387.829C1188.97 369.797 1157.88 364.607 1119.72 370.845C1081.56 377.082 1036.46 394.728 987.324 422.201C889.05 477.141 774.767 571.292 667.795 691.644Z" stroke="url(#paint13_linear_8969_2934)" stroke-width="1.55132"/>
<path d="M665.018 694.816C559.87 816.68 482.472 941.408 442.321 1044.53C422.245 1096.1 411.498 1142.22 411.226 1179.86C410.954 1217.51 421.158 1246.55 442.838 1264.15C464.518 1281.75 495.794 1286.37 533.953 1279.48C572.106 1272.58 617.021 1254.19 665.816 1225.94C763.398 1169.43 876.342 1073.56 981.489 951.692C1086.64 829.828 1164.03 705.1 1204.19 601.976C1224.26 550.411 1235.01 504.288 1235.28 466.648C1235.55 429.001 1225.35 399.956 1203.67 382.358C1181.99 364.76 1150.71 360.138 1112.55 367.032C1074.4 373.925 1029.49 392.314 980.691 420.569C883.108 477.076 770.165 572.952 665.018 694.816Z" stroke="url(#paint14_linear_8969_2934)" stroke-width="1.55132"/>
<path d="M662.289 698.025C558.999 821.365 483.587 947.067 445.148 1050.57C425.927 1102.33 415.966 1148.5 416.361 1186.02C416.755 1223.56 427.502 1252.33 449.557 1269.49C471.611 1286.65 503.059 1290.7 541.205 1283.15C579.346 1275.6 624.064 1256.48 672.498 1227.45C769.36 1169.39 880.929 1071.82 984.219 948.481C1087.51 825.142 1162.92 699.439 1201.36 595.932C1220.58 544.175 1230.54 498.008 1230.15 460.482C1229.75 422.95 1219.01 394.178 1196.95 377.019C1174.9 359.861 1143.45 355.807 1105.3 363.355C1067.16 370.902 1022.44 390.028 974.011 419.058C877.149 477.114 765.579 574.686 662.289 698.025Z" stroke="url(#paint15_linear_8969_2934)" stroke-width="1.55132"/>
<path d="M659.607 701.274C558.205 826.051 484.803 952.69 448.088 1056.55C429.728 1108.48 420.557 1154.68 421.617 1192.08C422.677 1229.48 433.964 1257.98 456.387 1274.69C478.809 1291.4 510.419 1294.89 548.541 1286.69C586.657 1278.49 631.165 1258.63 679.224 1228.84C775.335 1169.25 885.497 1070.01 986.899 945.233C1088.3 820.456 1161.7 693.817 1198.42 589.958C1216.78 538.024 1225.95 491.828 1224.89 454.428C1223.83 417.022 1212.54 388.531 1190.12 371.818C1167.7 355.104 1136.09 351.62 1097.96 359.82C1059.85 368.019 1015.34 387.876 967.282 417.671C871.171 477.258 761.009 576.497 659.607 701.274Z" stroke="url(#paint16_linear_8969_2934)" stroke-width="1.55132"/>
<path d="M656.975 704.561C557.492 830.738 486.123 958.274 451.142 1062.45C433.65 1114.55 425.27 1160.76 426.995 1198.02C428.721 1235.29 440.545 1263.49 463.329 1279.75C486.113 1296.02 517.875 1298.93 555.961 1290.08C594.042 1281.24 638.325 1260.65 685.994 1230.1C781.326 1169 890.045 1068.13 989.529 941.949C1089.01 815.772 1160.38 688.235 1195.36 584.055C1212.85 531.962 1221.23 485.75 1219.51 448.488C1217.78 411.22 1205.96 383.018 1183.17 366.755C1160.39 350.491 1128.63 347.578 1090.54 356.427C1052.46 365.274 1008.18 385.857 960.51 416.409C865.178 477.509 756.458 578.383 656.975 704.561Z" stroke="url(#paint17_linear_8969_2934)" stroke-width="1.55132"/>
<path d="M654.397 707.881C556.863 835.419 487.549 963.815 454.312 1068.28C437.692 1120.52 430.107 1166.74 432.497 1203.85C434.888 1240.97 447.246 1268.87 470.384 1284.68C493.522 1300.49 525.428 1302.83 563.466 1293.33C601.499 1283.84 645.545 1262.54 692.809 1231.24C787.332 1168.64 894.577 1066.16 992.111 938.626C1089.64 811.088 1158.96 682.692 1192.2 578.224C1208.82 525.986 1216.4 479.772 1214.01 442.659C1211.62 405.54 1199.26 377.637 1176.12 361.828C1152.99 346.019 1121.08 343.679 1083.04 353.174C1045.01 362.668 1000.96 383.969 953.698 415.268C859.175 477.863 751.93 580.343 654.397 707.881Z" stroke="url(#paint18_linear_8969_2934)" stroke-width="1.55132"/>
<path d="M651.867 711.238C556.313 840.098 489.073 969.314 457.591 1074.04C441.85 1126.41 435.061 1172.61 438.116 1209.56C441.171 1246.52 454.058 1274.11 477.543 1289.46C501.028 1304.81 533.068 1306.58 571.047 1296.44C609.021 1286.31 652.816 1264.29 699.662 1232.25C793.347 1168.18 899.084 1064.13 994.639 935.27C1090.19 806.409 1157.43 677.193 1188.91 572.468C1204.66 520.102 1211.44 473.901 1208.39 436.948C1205.33 399.989 1192.45 372.393 1168.96 357.044C1145.48 341.694 1113.44 339.926 1075.46 350.065C1037.48 360.202 993.69 382.216 946.844 414.253C853.159 478.323 747.421 582.377 651.867 711.238Z" stroke="url(#paint19_linear_8969_2934)" stroke-width="1.55132"/>
<path d="M649.39 714.629C555.844 844.773 490.7 974.77 460.983 1079.72C446.124 1132.2 440.134 1178.37 443.852 1215.15C447.57 1251.94 460.983 1279.22 484.809 1294.11C508.634 1308.99 540.798 1310.19 578.706 1299.41C616.609 1288.63 660.14 1265.91 706.552 1233.15C799.371 1167.62 903.569 1062.02 997.115 931.88C1090.66 801.736 1155.8 671.74 1185.52 566.79C1200.38 514.311 1206.37 468.137 1202.65 431.355C1198.93 394.568 1185.52 367.288 1161.7 352.402C1137.87 337.516 1105.71 336.322 1067.8 347.101C1029.9 357.879 986.365 380.599 939.953 413.364C847.134 478.889 742.936 584.485 649.39 714.629Z" stroke="url(#paint20_linear_8969_2934)" stroke-width="1.55132"/>
<path d="M646.967 718.052C555.458 849.44 492.43 980.177 464.487 1085.32C450.514 1137.9 445.325 1184.03 449.705 1220.63C454.086 1257.23 468.02 1284.19 492.179 1298.61C516.337 1313.02 548.615 1313.64 586.441 1302.23C624.262 1290.81 667.515 1267.39 713.48 1233.91C805.405 1166.95 908.031 1059.84 999.54 928.456C1091.05 797.068 1154.08 666.331 1182.02 561.188C1195.99 508.613 1201.18 462.479 1196.8 425.88C1192.42 389.277 1178.49 362.319 1154.33 347.902C1130.17 333.485 1097.89 332.865 1060.07 344.281C1022.25 355.696 978.993 379.114 933.027 412.597C841.103 479.559 738.477 586.665 646.967 718.052Z" stroke="url(#paint21_linear_8969_2934)" stroke-width="1.55132"/>
<path d="M644.597 721.508C555.152 854.099 494.259 985.537 468.098 1090.84C455.017 1143.5 450.63 1189.58 455.671 1225.98C460.712 1262.39 475.164 1289.02 499.649 1302.96C524.133 1316.9 556.515 1316.95 594.247 1304.9C631.974 1292.85 674.936 1268.74 720.44 1234.55C811.442 1166.17 912.466 1057.59 1001.91 925C1091.36 792.409 1152.25 660.97 1178.41 555.667C1191.49 503.011 1195.88 456.932 1190.84 420.527C1185.8 384.118 1171.34 357.492 1146.86 343.548C1122.37 329.604 1089.99 329.558 1052.26 341.608C1014.53 353.656 971.571 377.766 926.067 411.957C835.065 480.333 734.042 588.917 644.597 721.508Z" stroke="url(#paint22_linear_8969_2934)" stroke-width="1.55132"/>
<path d="M642.28 724.995C554.927 858.749 496.187 990.848 471.816 1096.28C459.63 1149 456.047 1195.01 461.747 1231.21C467.448 1267.41 482.413 1293.7 507.216 1307.17C532.019 1320.63 564.495 1320.11 602.122 1307.43C639.743 1294.75 682.402 1269.95 727.431 1235.07C817.483 1165.29 916.873 1055.27 1004.23 921.512C1091.58 787.758 1150.32 655.659 1174.69 550.227C1186.88 497.507 1190.46 451.497 1184.76 415.297C1179.06 379.092 1164.09 352.806 1139.29 339.34C1114.49 325.873 1082.01 326.401 1044.38 339.081C1006.76 351.759 964.103 376.553 919.074 411.441C829.023 481.212 729.633 591.24 642.28 724.995Z" stroke="url(#paint23_linear_8969_2934)" stroke-width="1.55132"/>
<path d="M640.019 728.512C554.785 863.389 498.217 996.109 475.643 1101.64C464.356 1154.41 461.578 1200.33 467.935 1236.32C474.294 1272.31 489.767 1298.24 514.881 1311.23C539.995 1324.21 572.556 1323.11 610.066 1309.81C647.571 1296.5 689.912 1271.03 734.452 1235.46C823.527 1164.31 921.253 1052.87 1006.49 917.997C1091.72 783.12 1148.29 650.4 1170.86 544.871C1182.15 492.103 1184.93 446.176 1178.57 410.192C1172.21 374.204 1156.74 348.265 1131.63 335.28C1106.51 322.295 1073.95 323.396 1036.44 336.702C998.936 350.007 956.594 375.478 912.054 411.053C822.98 482.197 725.254 593.636 640.019 728.512Z" stroke="url(#paint24_linear_8969_2934)" stroke-width="1.55132"/>
<path d="M637.813 732.058C554.723 868.015 500.344 1001.32 479.575 1106.91C469.19 1159.71 467.217 1205.54 474.23 1241.3C481.244 1277.06 497.221 1302.64 522.639 1315.14C548.056 1327.64 580.692 1325.96 618.073 1312.04C655.45 1298.11 697.462 1271.97 741.5 1235.72C829.569 1163.22 925.602 1050.41 1008.69 914.45C1091.78 778.493 1146.16 645.193 1166.93 539.599C1177.32 486.799 1179.29 440.968 1172.27 405.211C1165.26 369.451 1149.28 343.868 1123.87 331.368C1098.45 318.868 1065.81 320.543 1028.43 334.471C991.055 348.398 949.043 374.538 905.005 410.788C816.936 483.284 720.903 596.1 637.813 732.058Z" stroke="url(#paint25_linear_8969_2934)" stroke-width="1.55132"/>
<path d="M635.665 735.631C554.745 872.628 502.571 1006.47 483.612 1112.09C474.133 1164.91 472.966 1210.63 480.632 1246.15C488.3 1281.67 504.776 1306.89 530.49 1318.9C556.203 1330.91 588.904 1328.66 626.145 1314.12C663.383 1299.57 705.052 1272.77 748.574 1235.86C835.611 1162.03 929.921 1047.87 1010.84 910.877C1091.76 773.879 1143.94 640.04 1162.89 534.414C1172.37 481.598 1173.54 435.878 1165.87 400.359C1158.21 364.836 1141.73 339.616 1116.02 327.606C1090.3 315.595 1057.6 317.843 1020.36 332.389C983.124 346.933 941.455 373.735 897.933 410.65C810.895 484.475 716.585 598.633 635.665 735.631Z" stroke="url(#paint26_linear_8969_2934)" stroke-width="1.55132"/>
<path d="M633.574 739.231C554.848 877.226 504.894 1011.56 487.753 1117.19C479.181 1170.01 478.821 1215.6 487.139 1250.87C495.457 1286.15 512.428 1310.99 538.429 1322.51C564.43 1334.03 597.187 1331.21 634.277 1316.05C671.363 1300.89 712.677 1273.44 755.67 1235.87C841.649 1160.74 934.208 1045.27 1012.93 907.276C1091.66 769.281 1141.61 634.942 1158.75 529.317C1167.33 476.5 1167.69 430.905 1159.37 395.635C1151.05 360.361 1134.08 335.512 1108.08 323.994C1082.08 312.476 1049.32 315.298 1012.23 330.457C975.143 345.614 933.83 373.068 890.837 410.637C804.857 485.769 712.299 601.235 633.574 739.231Z" stroke="url(#paint27_linear_8969_2934)" stroke-width="1.55132"/>
<path d="M631.539 742.857C555.032 881.808 507.315 1016.6 491.995 1122.2C484.335 1175 484.781 1220.45 493.747 1255.47C502.714 1290.48 520.174 1314.95 546.455 1325.97C572.737 1336.99 605.538 1333.6 642.466 1317.83C679.39 1302.07 720.336 1273.97 762.786 1235.76C847.682 1159.34 938.46 1042.6 1014.97 903.651C1091.47 764.699 1139.19 629.903 1154.51 524.31C1162.17 471.51 1161.73 426.053 1152.76 391.042C1143.79 356.028 1126.33 331.558 1100.05 320.536C1073.77 309.515 1040.97 312.908 1004.04 328.675C967.117 344.442 926.171 372.54 883.72 410.751C798.825 487.167 708.047 603.905 631.539 742.857Z" stroke="url(#paint28_linear_8969_2934)" stroke-width="1.55132"/>
<path d="M629.564 746.507C555.298 886.372 509.832 1021.59 496.338 1127.11C489.591 1179.88 490.844 1225.19 500.456 1259.93C510.069 1294.67 528.012 1318.76 554.566 1329.28C581.12 1339.8 613.956 1335.83 650.71 1319.46C687.461 1303.09 728.027 1274.36 769.922 1235.52C853.707 1157.84 942.678 1039.87 1016.94 900.001C1091.21 760.135 1136.68 624.922 1150.17 519.393C1156.92 466.625 1155.66 421.321 1146.05 386.58C1136.44 351.837 1118.5 327.752 1091.94 317.23C1065.39 306.709 1032.55 310.673 995.797 327.044C959.046 343.414 918.481 372.149 876.586 410.99C792.8 488.667 703.829 606.642 629.564 746.507Z" stroke="url(#paint29_linear_8969_2934)" stroke-width="1.55132"/>
<path d="M627.646 750.181C555.645 890.917 512.443 1026.51 500.78 1131.94C494.948 1184.66 497.007 1229.8 507.262 1264.26C517.518 1298.72 535.939 1322.41 562.757 1332.43C589.576 1342.45 622.437 1337.91 659.006 1320.94C695.573 1303.97 735.746 1274.61 777.073 1235.15C859.722 1156.24 946.859 1037.06 1018.86 896.327C1090.86 755.591 1134.06 620.002 1145.73 514.57C1151.56 461.85 1149.5 416.712 1139.24 382.252C1128.99 347.789 1110.57 324.098 1083.75 314.079C1056.93 304.061 1024.07 308.594 987.5 325.565C950.934 342.534 910.761 371.895 869.434 411.355C786.784 490.269 699.648 609.445 627.646 750.181Z" stroke="url(#paint30_linear_8969_2934)" stroke-width="1.55132"/>
<path d="M625.79 753.877C556.075 895.441 515.151 1031.36 505.322 1136.67C500.407 1189.32 503.271 1234.28 514.165 1268.45C525.061 1302.62 543.955 1325.91 571.03 1335.42C598.104 1344.94 630.981 1339.83 667.354 1322.27C703.725 1304.71 743.492 1274.73 784.239 1234.66C865.728 1154.54 951.003 1034.19 1020.72 892.631C1090.43 751.066 1131.36 615.143 1141.19 509.839C1146.1 457.184 1143.24 412.226 1132.34 378.058C1121.45 343.886 1102.55 320.595 1075.48 311.083C1048.4 301.57 1015.53 306.672 979.154 324.236C942.783 341.799 903.015 371.779 862.269 411.845C780.78 491.972 695.505 612.312 625.79 753.877Z" stroke="url(#paint31_linear_8969_2934)" stroke-width="1.55132"/>
<path d="M623.992 757.594C556.585 899.943 517.951 1036.16 509.959 1141.3C505.962 1193.88 509.631 1238.64 521.162 1272.51C532.694 1306.38 552.055 1329.26 579.378 1338.26C606.701 1347.27 639.582 1341.6 675.748 1323.45C711.912 1305.3 751.263 1274.71 791.417 1234.05C871.719 1152.73 955.108 1031.26 1022.52 888.914C1089.92 746.564 1128.56 610.349 1136.55 505.206C1140.54 452.631 1136.88 407.867 1125.35 373.999C1113.81 340.13 1094.45 317.246 1067.13 308.243C1039.81 299.24 1006.92 304.908 970.759 323.061C934.595 341.212 895.244 371.8 855.091 412.461C774.788 493.776 691.399 615.245 623.992 757.594Z" stroke="url(#paint32_linear_8969_2934)" stroke-width="1.55132"/>
<path d="M622.255 761.331C557.175 904.422 520.843 1040.89 514.691 1145.84C511.614 1198.32 516.086 1242.87 528.25 1276.43C540.415 1309.99 560.237 1332.46 587.8 1340.95C615.363 1349.44 648.239 1343.21 684.187 1324.47C720.133 1305.74 759.055 1274.55 798.603 1233.31C877.696 1150.83 959.172 1028.27 1024.25 885.176C1089.33 742.086 1125.66 605.619 1131.82 500.668C1134.89 448.19 1130.42 403.633 1118.26 370.078C1106.09 336.521 1086.27 314.051 1058.71 305.56C1031.14 297.068 998.266 303.303 962.318 322.037C926.373 340.771 887.451 371.96 847.903 413.202C768.81 495.681 687.334 618.241 622.255 761.331Z" stroke="url(#paint33_linear_8969_2934)" stroke-width="1.55132"/>
<path d="M620.58 765.088C557.848 908.876 523.829 1045.55 519.518 1150.28C517.362 1202.64 522.636 1246.98 535.429 1280.21C548.223 1313.45 568.5 1335.5 596.295 1343.47C624.089 1351.45 656.951 1344.65 692.67 1325.34C728.387 1306.03 766.868 1274.25 805.799 1232.44C883.657 1148.82 963.196 1025.21 1025.93 881.42C1088.66 737.632 1122.68 600.955 1126.99 496.229C1129.15 443.863 1123.87 399.528 1111.08 366.294C1098.28 333.06 1078.01 311.011 1050.21 303.035C1022.42 295.058 989.556 301.855 953.837 321.167C918.12 340.478 879.64 372.257 840.708 414.068C762.85 497.686 683.311 621.299 620.58 765.088Z" stroke="url(#paint34_linear_8969_2934)" stroke-width="1.55132"/>
<path d="M618.965 768.862C558.601 913.305 526.905 1050.15 524.436 1154.62C523.202 1206.86 529.276 1250.96 542.695 1283.86C556.114 1316.76 576.84 1338.38 604.858 1345.84C632.875 1353.3 665.712 1345.94 701.191 1326.06C736.669 1306.18 774.697 1273.82 812.999 1231.45C889.599 1146.72 967.176 1022.09 1027.54 877.647C1087.91 733.204 1119.6 596.359 1122.07 491.89C1123.3 439.653 1117.23 395.552 1103.81 362.651C1090.39 329.748 1069.67 308.128 1041.65 300.668C1013.63 293.208 980.794 300.567 945.315 320.45C909.838 340.332 871.81 372.692 833.507 415.059C756.907 499.791 679.33 624.419 618.965 768.862Z" stroke="url(#paint35_linear_8969_2934)" stroke-width="1.55132"/>
<path d="M617.414 772.652C559.435 917.705 530.072 1054.68 529.446 1158.86C529.134 1210.95 536.006 1254.8 550.046 1287.36C564.086 1319.92 585.255 1341.11 613.488 1348.05C641.72 1354.99 674.523 1347.07 709.751 1326.62C744.977 1306.17 782.541 1273.24 820.203 1230.33C895.521 1144.52 971.114 1018.91 1029.09 873.856C1087.07 728.803 1116.43 591.832 1117.06 487.651C1117.37 435.558 1110.5 391.705 1096.46 359.146C1082.42 326.586 1061.25 305.401 1033.02 298.46C1004.79 291.52 971.984 299.438 936.756 319.886C901.529 340.333 863.966 373.263 826.304 416.174C750.985 501.993 675.393 627.599 617.414 772.652Z" stroke="url(#paint36_linear_8969_2934)" stroke-width="1.55132"/>
<path d="M615.924 776.458C560.348 922.077 533.328 1059.13 534.545 1162.99C535.154 1214.93 542.823 1258.52 557.48 1290.72C572.137 1322.93 593.743 1343.68 622.181 1350.1C650.62 1356.51 683.377 1348.04 718.344 1327.03C753.31 1306.03 790.397 1272.54 827.407 1229.09C901.421 1142.21 975.005 1015.67 1030.58 870.05C1086.16 724.431 1113.18 587.375 1111.96 483.515C1111.35 431.582 1103.68 387.99 1089.03 355.784C1074.37 323.576 1052.76 302.832 1024.32 296.413C995.886 289.994 963.129 298.469 928.162 319.475C893.197 340.482 856.109 373.972 819.099 417.414C745.085 504.293 671.501 630.839 615.924 776.458Z" stroke="url(#paint37_linear_8969_2934)" stroke-width="1.55132"/>
<path d="M614.499 780.279C561.342 926.419 536.672 1063.52 539.733 1167.03C541.263 1218.78 549.726 1262.1 564.996 1293.94C580.265 1325.79 602.3 1346.09 630.937 1351.98C659.573 1357.88 692.276 1348.85 726.97 1327.29C761.664 1305.73 798.265 1271.69 834.61 1227.73C907.298 1139.82 978.852 1012.37 1032.01 866.229C1085.16 720.089 1109.83 582.99 1106.77 479.482C1105.24 427.726 1096.78 384.408 1081.51 352.563C1066.24 320.718 1044.21 300.421 1015.57 294.525C986.934 288.63 954.231 297.659 919.537 319.218C884.843 340.777 848.242 374.818 811.896 418.777C739.209 506.691 667.655 634.138 614.499 780.279Z" stroke="url(#paint38_linear_8969_2934)" stroke-width="1.55132"/>
<path d="M613.137 784.112C562.416 930.73 540.104 1067.83 545.007 1170.95C547.458 1222.52 556.713 1265.55 572.59 1297.02C588.467 1328.49 610.925 1348.34 639.751 1353.71C668.576 1359.08 701.214 1349.5 735.625 1327.39C770.037 1305.29 806.139 1270.71 841.811 1226.24C913.149 1137.32 982.651 1009.01 1033.37 862.396C1084.09 715.778 1106.4 578.679 1101.5 475.554C1099.05 423.989 1089.79 380.959 1073.92 349.486C1058.04 318.013 1035.58 298.169 1006.76 292.799C977.932 287.429 945.294 297.01 910.882 319.115C876.471 341.22 840.368 375.8 804.697 420.264C733.358 509.185 663.857 637.494 613.137 784.112Z" stroke="url(#paint39_linear_8969_2934)" stroke-width="1.55132"/>
<path d="M611.839 787.957C563.57 935.007 543.621 1072.07 550.365 1174.78C553.737 1226.13 563.78 1268.86 580.26 1299.95C596.74 1331.05 619.615 1350.43 648.62 1355.27C677.626 1360.12 710.189 1349.99 744.307 1327.34C778.426 1304.7 814.019 1269.59 849.005 1224.63C918.973 1134.73 986.401 1005.6 1034.67 858.55C1082.94 711.5 1102.89 574.441 1096.14 471.731C1092.77 420.374 1082.73 377.645 1066.25 346.553C1049.77 315.462 1026.89 296.077 997.888 291.234C968.882 286.392 936.319 296.521 902.201 319.165C868.083 341.809 832.489 376.919 797.503 421.873C727.535 511.775 660.107 640.907 611.839 787.957Z" stroke="url(#paint40_linear_8969_2934)" stroke-width="1.55132"/>
<path d="M610.602 791.814C564.799 939.252 547.221 1076.23 555.803 1178.49C560.095 1229.63 570.923 1272.04 588.001 1302.74C605.079 1333.44 628.363 1352.36 657.54 1356.68C686.717 1360.99 719.196 1350.31 753.01 1327.14C786.825 1303.96 821.899 1268.33 856.189 1222.9C924.765 1132.05 990.099 1002.13 1035.9 854.694C1081.7 707.257 1099.28 570.28 1090.7 468.017C1086.41 416.883 1075.58 374.467 1058.5 343.767C1041.42 313.066 1018.14 294.147 988.963 289.833C959.786 285.519 927.307 296.194 893.493 319.37C859.677 342.547 824.604 378.175 790.314 423.605C721.738 514.461 656.404 644.377 610.602 791.814Z" stroke="url(#paint41_linear_8969_2934)" stroke-width="1.55132"/>
<path d="M609.434 795.68C566.112 943.46 550.91 1080.31 561.328 1182.1C566.537 1232.99 578.148 1275.08 595.819 1305.38C613.489 1335.68 637.176 1354.13 666.516 1357.91C695.855 1361.7 728.239 1350.48 761.74 1326.78C795.241 1303.08 829.785 1266.94 863.368 1221.05C930.531 1129.27 993.751 998.607 1037.07 850.827C1080.4 703.047 1095.6 566.195 1085.18 464.409C1079.97 413.514 1068.36 371.425 1050.69 341.125C1033.02 310.824 1009.33 292.376 979.992 288.593C950.652 284.809 918.269 296.026 884.768 319.728C851.266 343.429 816.723 379.566 783.14 425.459C715.977 517.24 652.757 647.9 609.434 795.68Z" stroke="url(#paint42_linear_8969_2934)" stroke-width="1.55132"/>
<path d="M608.329 799.554C567.5 947.631 554.678 1084.32 566.929 1185.59C573.055 1236.24 585.444 1277.99 603.702 1307.88C621.959 1337.77 646.042 1355.74 675.535 1358.99C705.029 1362.24 737.308 1350.49 770.485 1326.27C803.662 1302.05 837.664 1265.41 870.531 1219.07C936.26 1126.39 997.347 995.03 1038.18 846.952C1079.01 698.875 1091.83 562.189 1079.58 460.911C1073.45 410.27 1061.06 368.521 1042.8 338.629C1024.55 308.739 1000.46 290.767 970.97 287.515C941.477 284.263 909.198 296.02 876.021 320.239C842.843 344.458 808.841 381.091 775.975 427.433C710.245 520.112 649.158 651.476 608.329 799.554Z" stroke="url(#paint43_linear_8969_2934)" stroke-width="1.55132"/>
<path d="M607.289 803.436C568.966 951.766 558.528 1088.24 572.608 1188.98C579.648 1239.35 592.813 1280.75 611.652 1310.22C630.491 1339.7 654.961 1357.19 684.6 1359.91C714.238 1362.62 746.403 1350.33 779.245 1325.6C812.089 1300.87 845.539 1263.75 877.679 1216.98C941.956 1123.43 1000.89 991.401 1039.21 843.071C1077.54 694.741 1087.97 558.263 1073.9 457.524C1066.86 407.153 1053.69 365.756 1034.85 336.283C1016.01 306.811 991.542 289.322 961.903 286.602C932.265 283.883 900.1 296.175 867.258 320.904C834.414 345.635 800.964 382.754 768.824 429.53C704.547 523.078 645.612 655.106 607.289 803.436Z" stroke="url(#paint44_linear_8969_2934)" stroke-width="1.55132"/>
<path d="M606.317 807.324C570.512 955.861 562.462 1092.09 578.366 1192.26C586.318 1242.35 600.254 1283.38 619.669 1312.42C639.084 1341.47 663.935 1358.47 693.709 1360.66C723.483 1362.84 755.524 1350.02 788.022 1324.79C820.522 1299.55 853.411 1261.96 884.814 1214.76C947.618 1120.37 1004.38 987.721 1040.19 839.184C1075.99 690.646 1084.04 554.417 1068.14 454.248C1060.19 404.162 1046.25 363.13 1026.84 334.085C1007.42 305.04 982.571 288.039 952.797 285.853C923.023 283.666 890.983 296.49 858.484 321.722C825.984 346.956 793.096 384.549 761.692 431.746C698.889 526.135 642.123 658.787 606.317 807.324Z" stroke="url(#paint45_linear_8969_2934)" stroke-width="1.55132"/>
<path d="M605.409 811.217C572.132 959.917 566.472 1095.86 584.196 1195.42C593.058 1245.21 607.76 1285.86 627.746 1314.47C647.731 1343.08 672.955 1359.59 702.856 1361.24C732.756 1362.89 764.663 1349.54 796.808 1323.81C828.954 1298.09 861.27 1260.03 891.928 1212.43C953.239 1117.23 1007.82 983.99 1041.1 835.291C1074.37 686.592 1080.03 550.653 1062.31 451.085C1053.45 401.299 1038.74 360.645 1018.76 332.035C998.774 303.427 973.55 286.919 943.649 285.266C913.748 283.614 881.842 296.966 849.697 322.694C817.551 348.423 785.234 386.479 754.577 434.081C693.266 529.282 638.687 662.518 605.409 811.217Z" stroke="url(#paint46_linear_8969_2934)" stroke-width="1.55132"/>
<path d="M604.57 815.113C573.831 963.929 570.563 1099.54 590.101 1198.47C599.87 1247.94 615.335 1288.21 635.884 1316.37C656.433 1344.54 682.023 1360.55 712.041 1361.66C742.059 1362.78 773.823 1348.9 805.603 1322.69C837.386 1296.47 869.121 1257.97 899.023 1209.97C958.824 1113.99 1011.2 980.209 1041.94 831.394C1072.68 682.578 1075.95 546.971 1056.41 448.034C1046.64 398.563 1031.17 358.299 1010.62 330.134C990.075 301.971 964.486 285.961 934.467 284.843C904.449 283.726 872.686 297.602 840.905 323.817C809.123 350.033 777.387 388.541 747.486 436.535C687.685 532.519 635.31 666.297 604.57 815.113Z" stroke="url(#paint47_linear_8969_2934)" stroke-width="1.55132"/>
<path d="M603.795 819.012C575.604 967.9 574.728 1103.13 596.074 1201.41C606.748 1250.55 622.97 1290.41 644.077 1318.12C665.183 1345.83 691.131 1361.34 721.258 1361.92C751.385 1362.5 782.994 1348.11 814.402 1321.41C845.811 1294.72 876.955 1255.77 906.092 1207.4C964.364 1110.66 1014.52 976.382 1042.71 827.494C1070.9 678.607 1071.78 543.374 1050.43 445.098C1039.76 395.958 1023.54 356.095 1002.43 328.384C981.323 300.675 955.376 285.167 925.249 284.585C895.122 284.003 863.512 298.398 832.105 325.093C800.696 351.789 769.552 390.736 740.414 439.107C682.142 535.844 631.987 670.125 603.795 819.012Z" stroke="url(#paint48_linear_8969_2934)" stroke-width="1.55132"/>
<path d="M603.088 822.914C577.453 971.828 578.97 1106.65 602.118 1204.23C613.693 1253.03 630.667 1292.47 652.326 1319.72C673.983 1346.97 700.28 1361.97 730.507 1362.02C760.733 1362.06 792.179 1347.15 823.204 1319.99C854.23 1292.82 884.774 1253.45 913.137 1204.71C969.863 1107.25 1017.78 972.509 1043.42 823.595C1069.05 674.682 1067.54 539.864 1044.39 442.278C1032.81 393.483 1015.84 354.035 994.181 326.786C972.524 299.539 946.226 284.539 916 284.492C885.774 284.445 854.327 299.356 823.303 326.522C792.277 353.689 761.733 393.064 733.369 441.797C676.644 539.259 628.723 674.001 603.088 822.914Z" stroke="url(#paint49_linear_8969_2934)" stroke-width="1.55132"/>
<path d="M602.447 826.815C579.376 975.709 583.285 1110.07 608.228 1206.94C620.7 1255.37 638.421 1294.39 660.625 1321.17C682.827 1347.95 709.466 1362.44 739.782 1361.95C770.099 1361.46 801.373 1346.04 832.005 1318.41C862.639 1290.78 892.572 1250.99 920.154 1201.91C975.315 1103.75 1020.99 968.588 1044.06 819.695C1067.13 670.801 1063.22 536.438 1038.28 439.573C1025.8 391.139 1008.08 352.117 985.88 325.338C963.678 298.561 937.039 284.073 906.722 284.562C876.406 285.051 845.132 300.473 814.5 328.101C783.866 355.732 753.933 395.522 726.351 444.603C671.19 542.759 625.518 677.921 602.447 826.815Z" stroke="url(#paint50_linear_8969_2934)" stroke-width="1.55132"/>
<path d="M601.875 830.714C581.375 979.543 587.675 1113.41 614.405 1209.52C627.771 1257.58 646.234 1296.17 668.976 1322.47C691.715 1348.77 718.689 1362.74 749.086 1361.71C779.483 1360.69 810.575 1344.76 840.805 1316.68C871.037 1288.59 900.352 1248.4 927.143 1198.99C980.724 1100.16 1024.13 964.623 1044.63 815.794C1065.13 666.965 1058.83 533.099 1032.1 436.985C1018.74 388.925 1000.27 350.341 977.532 324.041C954.792 297.743 927.819 283.772 897.421 284.796C867.024 285.82 835.932 301.748 805.702 329.831C775.47 357.917 746.156 398.111 719.364 447.523C665.783 546.344 622.375 681.885 601.875 830.714Z" stroke="url(#paint51_linear_8969_2934)" stroke-width="1.55132"/>
<path d="M601.37 834.612C583.447 983.33 592.136 1116.66 620.645 1211.99C634.9 1259.66 654.1 1297.8 677.372 1323.61C700.643 1349.42 727.942 1362.87 758.411 1361.31C788.88 1359.76 819.78 1343.33 849.599 1314.8C879.42 1286.26 908.107 1245.68 934.099 1195.95C986.083 1096.49 1027.22 960.616 1045.14 811.897C1063.06 663.178 1054.37 529.849 1025.86 434.514C1011.61 386.844 992.408 348.71 969.135 322.896C945.865 297.085 918.566 283.634 888.097 285.194C857.628 286.753 826.728 303.183 796.909 331.712C767.087 360.243 738.401 400.829 712.408 450.558C660.424 550.014 619.292 685.893 601.37 834.612Z" stroke="url(#paint52_linear_8969_2934)" stroke-width="1.55132"/>
<path d="M600.932 838.506C585.592 987.069 596.668 1119.82 626.947 1214.35C642.087 1261.61 662.017 1299.28 685.814 1324.6C709.608 1349.92 737.224 1362.85 767.755 1360.75C798.287 1358.66 828.986 1341.73 858.385 1312.77C887.787 1283.8 915.836 1242.83 941.022 1192.8C991.393 1092.74 1030.24 956.566 1045.58 808.002C1060.92 659.439 1049.84 526.688 1019.56 432.161C1004.42 384.896 984.491 347.223 960.695 321.904C936.901 296.587 909.284 283.661 878.753 285.755C848.222 287.85 817.523 304.776 788.124 333.742C758.722 362.711 730.672 403.676 705.486 453.707C655.115 553.767 616.272 689.942 600.932 838.506Z" stroke="url(#paint53_linear_8969_2934)" stroke-width="1.55132"/>
<path d="M600.56 842.396C587.808 990.758 601.267 1122.89 633.307 1216.58C649.328 1263.43 669.982 1300.63 694.295 1325.44C718.605 1350.26 746.531 1362.66 777.115 1360.03C807.7 1357.4 838.188 1339.98 867.158 1310.59C896.131 1281.19 923.535 1239.86 947.908 1189.54C996.65 1088.91 1033.19 952.476 1045.95 804.113C1058.7 655.75 1045.24 523.618 1013.2 429.928C997.178 383.082 976.524 345.882 952.211 321.064C927.9 296.249 899.975 283.853 869.391 286.481C838.806 289.11 808.318 306.528 779.348 335.922C750.375 365.32 722.971 406.651 698.598 456.969C649.855 557.603 613.313 694.033 600.56 842.396Z" stroke="url(#paint54_linear_8969_2934)" stroke-width="1.55132"/>
<path d="M600.258 846.279C590.097 994.396 605.935 1125.87 639.726 1218.69C656.622 1265.11 677.995 1301.82 702.817 1326.13C727.637 1350.44 755.863 1362.3 786.491 1359.14C817.119 1355.98 847.387 1338.07 875.92 1308.26C904.455 1278.44 931.206 1236.76 954.756 1186.17C1001.86 1084.99 1036.09 948.346 1046.25 800.229C1056.41 652.112 1040.57 520.639 1006.78 427.815C989.884 381.401 968.512 344.685 943.69 320.377C918.87 296.072 890.644 284.208 860.016 287.371C829.388 290.533 799.119 308.436 770.587 338.251C742.052 368.068 715.301 409.753 691.75 460.343C644.65 561.519 610.419 698.162 600.258 846.279Z" stroke="url(#paint55_linear_8969_2934)" stroke-width="1.55132"/>
<path d="M600.024 850.156C592.457 997.982 610.669 1128.76 646.201 1220.69C663.967 1266.65 686.051 1302.87 711.375 1326.66C736.696 1350.45 765.215 1361.78 795.877 1358.09C826.539 1354.39 856.578 1336.01 884.664 1305.78C912.754 1275.55 938.842 1233.53 961.564 1182.68C1007.01 1080.99 1038.92 944.178 1046.48 796.352C1054.05 648.526 1035.84 517.752 1000.31 425.822C982.539 379.855 960.455 343.635 935.131 319.844C909.81 296.055 881.292 284.728 850.629 288.423C819.967 292.118 789.928 310.502 761.842 340.727C733.753 370.955 707.664 412.981 684.942 463.827C639.499 565.516 607.59 702.33 600.024 850.156Z" stroke="url(#paint56_linear_8969_2934)" stroke-width="1.55132"/>
<path d="M599.858 854.024C594.888 1001.51 615.468 1131.55 652.73 1222.56C671.362 1268.06 694.15 1303.78 719.968 1327.04C745.783 1350.31 774.585 1361.1 805.272 1356.87C835.959 1352.64 865.76 1333.78 893.391 1303.16C921.025 1272.53 946.444 1230.17 968.331 1179.09C1012.1 1076.92 1041.68 939.973 1046.65 792.483C1051.62 644.993 1031.04 514.957 993.777 423.949C975.146 378.443 952.357 342.729 926.539 319.462C900.724 296.198 871.923 285.411 841.235 289.638C810.548 293.865 780.747 312.724 753.116 343.35C725.482 373.98 700.063 416.333 678.176 467.42C634.405 569.59 604.828 706.535 599.858 854.024Z" stroke="url(#paint57_linear_8969_2934)" stroke-width="1.55132"/>
<path d="M599.759 857.884C597.387 1004.99 620.329 1134.25 659.31 1224.31C678.801 1269.34 702.287 1304.54 728.591 1327.27C754.892 1350.01 783.969 1360.25 814.672 1355.49C845.375 1350.73 874.928 1331.41 902.096 1300.39C929.266 1269.37 954.008 1226.7 975.052 1175.39C1017.14 1072.77 1044.38 935.732 1046.75 788.623C1049.12 641.515 1026.18 512.257 987.197 422.198C967.706 377.168 944.22 341.971 917.915 319.235C891.614 296.502 862.538 286.259 831.835 291.016C801.132 295.774 771.579 315.102 744.411 346.12C717.24 377.141 692.499 419.811 671.454 471.122C629.367 573.742 602.131 710.775 599.759 857.884Z" stroke="url(#paint58_linear_8969_2934)" stroke-width="1.55132"/>
<path d="M599.728 861.734C599.955 1008.42 625.253 1136.86 665.94 1225.94C686.284 1270.48 710.461 1305.15 737.243 1327.35C764.022 1349.54 793.365 1359.24 824.074 1353.95C854.783 1348.67 884.08 1328.87 910.776 1297.47C937.475 1266.07 961.532 1223.1 981.727 1171.58C1022.12 1068.54 1047 931.458 1046.78 784.775C1046.55 638.092 1021.25 509.652 980.566 420.57C960.222 376.028 936.045 341.36 909.263 319.162C882.484 296.967 853.141 287.27 822.432 292.557C791.723 297.843 762.426 317.635 735.73 349.036C709.031 380.44 684.974 423.412 664.779 474.933C624.389 577.971 599.502 715.051 599.728 861.734Z" stroke="url(#paint59_linear_8969_2934)" stroke-width="1.55132"/>
<path d="M599.768 865.57C602.593 1011.78 630.238 1139.37 672.62 1227.44C693.811 1271.48 718.671 1305.61 745.923 1327.27C773.172 1348.92 802.772 1358.06 833.478 1352.25C864.183 1346.44 893.215 1326.19 919.431 1294.41C945.651 1262.64 969.015 1219.37 988.356 1167.66C1027.04 1064.23 1049.57 927.15 1046.74 780.937C1043.92 634.724 1016.27 507.141 973.889 419.064C952.698 375.024 927.838 340.894 900.586 319.241C873.337 297.591 843.738 288.444 813.032 294.258C782.326 300.072 753.294 320.321 727.078 352.094C700.858 383.872 677.494 427.133 658.153 478.848C619.472 582.274 596.942 719.358 599.768 865.57Z" stroke="url(#paint60_linear_8969_2934)" stroke-width="1.55132"/>
<path d="M599.873 869.395C605.296 1015.09 635.28 1141.78 679.343 1228.83C701.375 1272.35 726.911 1305.93 754.625 1327.03C782.335 1348.13 812.182 1356.73 842.876 1350.39C873.569 1344.05 902.326 1323.35 928.055 1291.21C953.787 1259.07 976.452 1215.53 994.932 1163.64C1031.89 1059.86 1052.06 922.811 1046.63 777.113C1041.21 631.415 1011.23 504.727 967.164 417.681C945.132 374.157 919.597 340.576 891.883 319.475C864.173 298.376 834.325 289.781 803.632 296.121C772.939 302.461 744.182 323.161 718.453 355.298C692.721 387.439 670.056 430.976 651.576 482.869C614.616 586.651 594.449 723.698 599.873 869.395Z" stroke="url(#paint61_linear_8969_2934)" stroke-width="1.55132"/>
<path d="M600.045 873.206C608.065 1018.34 640.379 1144.1 686.11 1230.09C708.976 1273.08 735.179 1306.1 763.346 1326.65C791.509 1347.19 821.596 1355.23 852.267 1348.36C882.939 1341.5 911.412 1320.35 936.645 1287.86C961.882 1255.37 983.84 1211.57 1001.45 1159.52C1036.68 1055.41 1054.48 918.441 1046.46 773.303C1038.44 628.165 1006.13 502.411 960.395 416.422C937.529 373.427 911.326 340.405 883.159 319.862C854.995 299.321 824.909 291.281 794.238 298.145C763.566 305.009 735.093 326.154 709.859 358.644C684.623 391.139 662.664 434.939 645.05 486.994C609.823 591.1 592.026 728.068 600.045 873.206Z" stroke="url(#paint62_linear_8969_2934)" stroke-width="1.55132"/>
<path d="M600.288 877.002C610.901 1021.54 645.535 1146.32 692.92 1231.22C716.612 1273.68 743.476 1306.13 772.087 1326.11C800.695 1346.08 831.011 1353.57 861.651 1346.18C892.292 1338.79 920.473 1317.21 945.203 1284.38C969.936 1251.54 991.182 1207.49 1007.92 1155.29C1041.41 1050.89 1056.83 914.042 1046.22 769.508C1035.6 624.973 1000.97 500.192 953.586 415.287C929.893 372.833 903.03 340.38 874.418 320.401C845.81 300.425 815.494 292.943 784.854 300.329C754.214 307.715 726.032 329.298 701.302 362.132C676.569 394.97 655.323 439.02 638.581 491.221C605.097 595.619 589.675 732.467 600.288 877.002Z" stroke="url(#paint63_linear_8969_2934)" stroke-width="1.55132"/>
<path d="M600.598 880.78C613.802 1024.67 650.745 1148.44 699.769 1232.23C724.282 1274.13 751.797 1306.01 780.844 1325.41C809.888 1344.82 840.424 1351.74 871.024 1343.84C901.623 1335.93 929.504 1313.92 953.723 1280.75C977.946 1247.58 998.472 1203.29 1014.34 1150.96C1046.07 1046.3 1059.11 909.615 1045.91 765.728C1032.7 621.841 995.761 498.07 946.737 414.274C922.224 372.376 894.709 340.502 865.661 321.093C836.618 301.687 806.081 294.765 775.482 302.67C744.883 310.576 717.001 332.592 692.782 365.759C668.56 398.931 648.033 443.217 632.168 495.548C600.437 600.208 587.394 736.893 600.598 880.78Z" stroke="url(#paint64_linear_8969_2934)" stroke-width="1.55132"/>
<path d="M600.977 884.542C616.767 1027.74 656.008 1150.46 706.657 1233.12C731.982 1274.45 760.14 1305.74 789.615 1324.57C819.085 1343.4 849.833 1349.76 880.383 1341.34C910.932 1332.91 938.504 1310.47 962.205 1276.98C985.91 1243.49 1005.71 1198.98 1020.69 1146.53C1050.66 1041.64 1061.32 905.162 1045.53 761.966C1029.74 618.771 990.5 496.048 939.851 413.388C914.526 372.057 886.368 340.772 856.893 321.939C827.423 303.109 796.675 296.749 766.126 305.172C735.577 313.595 708.004 336.036 684.303 369.527C660.599 403.022 640.798 447.531 625.814 499.976C595.846 604.865 585.187 741.346 600.977 884.542Z" stroke="url(#paint65_linear_8969_2934)" stroke-width="1.55132"/>
<path d="M601.422 888.284C619.794 1030.74 661.321 1152.38 713.579 1233.88C739.708 1274.63 768.501 1305.32 798.394 1323.57C828.283 1341.82 859.232 1347.61 889.722 1338.68C920.212 1329.74 947.466 1306.88 970.642 1273.08C993.822 1239.27 1012.89 1194.55 1026.99 1142C1055.18 1036.92 1063.46 900.683 1045.09 758.222C1026.71 615.762 985.186 494.124 932.929 412.624C906.799 371.873 878.006 341.187 848.113 322.936C818.225 304.688 787.275 298.892 756.785 307.83C726.295 316.768 699.041 339.627 675.865 373.431C652.686 407.24 633.617 451.958 619.519 504.502C591.323 609.587 583.051 745.823 601.422 888.284Z" stroke="url(#paint66_linear_8969_2934)" stroke-width="1.55132"/>
<path d="M601.935 892.009C622.882 1033.69 666.683 1154.21 720.534 1234.52C747.46 1274.68 776.879 1304.76 807.181 1322.42C837.478 1340.08 868.62 1345.31 899.041 1335.86C929.462 1326.41 956.391 1303.14 979.034 1269.03C1001.68 1234.92 1020.01 1190.01 1033.22 1137.38C1059.64 1032.13 1065.52 896.182 1044.57 754.5C1023.62 612.818 979.823 492.304 925.972 411.988C899.046 371.83 869.627 341.751 839.325 324.088C809.028 306.427 777.886 301.197 747.465 310.647C717.044 320.098 690.115 343.368 667.472 377.475C644.825 411.587 626.493 456.5 613.286 509.127C586.87 614.377 580.987 750.326 601.935 892.009Z" stroke="url(#paint67_linear_8969_2934)" stroke-width="1.55132"/>
<path d="M602.515 895.711C626.032 1036.57 672.093 1155.93 727.52 1235.03C782.991 1314.2 847.649 1352.81 908.337 1332.89C969.025 1312.97 1014.74 1238.13 1039.39 1132.66C1064.01 1027.28 1067.51 891.658 1043.99 750.798C1020.47 609.937 974.412 490.582 918.985 411.476C863.514 332.309 798.856 293.698 738.168 313.619C677.479 333.54 631.762 408.381 607.116 513.846C582.49 619.229 578.998 754.85 602.515 895.711Z" stroke="url(#paint68_linear_8969_2934)" stroke-width="1.55132"/>
<path d="M603.165 899.391C629.244 1039.39 677.551 1157.55 734.538 1235.42C791.569 1313.35 857.097 1350.7 917.61 1329.76C978.122 1308.83 1022.64 1233.41 1045.49 1127.85C1068.32 1022.36 1069.42 887.113 1043.34 747.117C1017.26 607.121 968.957 488.961 911.97 411.089C854.94 333.157 789.412 295.812 728.899 316.746C668.386 337.679 623.864 413.095 601.016 518.659C578.185 624.143 577.086 759.394 603.165 899.391Z" stroke="url(#paint69_linear_8969_2934)" stroke-width="1.55132"/>
<path d="M603.879 903.047C632.513 1042.14 683.051 1159.06 741.581 1235.68C800.154 1312.35 866.532 1348.42 926.851 1326.48C987.169 1304.54 1030.48 1228.57 1051.53 1122.94C1072.55 1017.39 1071.26 882.549 1042.63 743.46C1013.99 604.371 963.456 487.442 904.926 410.827C846.353 334.155 779.975 298.087 719.656 320.027C659.338 341.967 616.024 417.933 594.981 523.565C573.953 629.118 575.246 763.958 603.879 903.047Z" stroke="url(#paint70_linear_8969_2934)" stroke-width="1.55132"/>
<path d="M604.661 906.68C635.841 1044.82 688.594 1160.48 748.649 1235.82C808.747 1311.21 875.954 1345.99 936.061 1323.05C996.167 1300.11 1038.26 1223.61 1057.49 1117.94C1076.71 1012.36 1073.02 877.966 1041.85 739.827C1010.67 601.687 957.913 486.026 897.858 410.691C837.76 335.301 770.552 300.522 710.446 323.462C650.34 346.401 608.248 422.896 589.016 528.563C569.797 634.152 573.482 768.541 604.661 906.68Z" stroke="url(#paint71_linear_8969_2934)" stroke-width="1.55132"/>
<path d="M605.511 910.288C639.226 1047.44 694.18 1161.8 755.74 1235.83C817.345 1309.91 885.362 1343.39 945.237 1319.46C1005.11 1295.53 1045.97 1218.53 1063.39 1112.86C1080.79 1007.26 1074.71 873.367 1041 736.219C1007.28 599.071 952.329 484.712 890.768 410.681C829.163 336.596 761.147 303.116 701.271 327.049C641.396 350.981 600.538 427.98 583.123 533.65C565.72 639.244 571.795 773.14 605.511 910.288Z" stroke="url(#paint72_linear_8969_2934)" stroke-width="1.55132"/>
<path d="M606.424 913.87C642.665 1049.98 699.801 1163.01 762.849 1235.71C825.942 1308.47 894.747 1340.64 954.373 1315.72C1014 1290.8 1053.61 1213.32 1069.2 1107.68C1084.79 1002.12 1076.32 868.754 1040.08 732.639C1003.84 596.524 946.703 483.502 883.655 410.797C820.562 338.04 751.757 305.869 692.131 330.787C632.505 355.706 592.894 433.186 577.3 538.827C561.718 644.392 570.182 777.755 606.424 913.87Z" stroke="url(#paint73_linear_8969_2934)" stroke-width="1.55132"/>
<path d="M607.406 917.423C646.162 1052.46 705.464 1164.11 769.98 1235.47C834.542 1306.88 904.115 1337.73 963.474 1311.83C1022.83 1285.94 1061.18 1208 1074.95 1102.42C1088.71 996.914 1077.86 864.125 1039.1 729.085C1000.35 594.045 941.043 482.395 876.527 411.037C811.966 339.63 742.392 308.778 683.034 334.674C623.675 360.571 585.324 438.508 571.557 544.088C557.8 649.594 568.651 782.383 607.406 917.423Z" stroke="url(#paint74_linear_8969_2934)" stroke-width="1.55132"/>
<path d="M608.452 920.948C649.711 1054.87 711.16 1165.12 777.125 1235.1C843.135 1305.14 913.455 1334.66 972.528 1307.8C1031.6 1280.93 1068.68 1202.56 1080.62 1097.07C1092.55 991.659 1079.31 859.485 1038.05 725.56C996.794 591.636 935.345 481.391 869.38 411.404C803.37 341.368 733.05 311.844 673.977 338.711C614.904 365.578 577.824 443.949 565.888 549.436C553.96 654.849 567.193 787.023 608.452 920.948Z" stroke="url(#paint75_linear_8969_2934)" stroke-width="1.55132"/>
<path d="M609.566 924.442C653.315 1057.21 716.893 1166.02 784.286 1234.61C851.725 1303.26 922.77 1331.44 981.539 1303.61C1040.31 1275.78 1076.11 1197 1086.21 1091.64C1096.3 986.352 1080.69 854.833 1036.94 722.065C993.192 589.297 929.614 480.491 862.221 411.895C794.782 343.252 723.737 315.066 664.968 342.895C606.199 370.724 570.401 449.504 560.299 554.866C550.204 660.155 565.817 791.675 609.566 924.442Z" stroke="url(#paint76_linear_8969_2934)" stroke-width="1.55132"/>
<path d="M610.745 927.907C656.971 1059.48 722.658 1166.81 791.459 1234C860.307 1301.22 932.055 1328.06 990.502 1299.28C1048.95 1270.5 1083.45 1191.33 1091.72 1086.13C1099.98 980.996 1081.99 850.171 1035.76 718.601C989.539 587.03 923.851 479.696 855.05 412.512C786.203 345.283 714.454 318.443 656.007 347.226C597.56 376.009 563.055 455.174 554.791 560.378C546.532 665.512 564.519 796.336 610.745 927.907Z" stroke="url(#paint77_linear_8969_2934)" stroke-width="1.55132"/>
<path d="M611.985 931.339C660.674 1061.67 728.451 1167.5 798.639 1233.25C868.874 1299.05 941.304 1324.53 999.412 1294.81C1057.52 1265.08 1090.72 1185.55 1097.14 1080.54C1103.57 975.592 1083.21 845.502 1034.52 715.169C985.832 584.835 918.055 479.006 847.867 413.254C777.632 347.459 705.202 321.973 647.094 351.701C588.987 381.429 555.786 460.956 549.361 565.97C542.941 670.916 563.296 801.006 611.985 931.339Z" stroke="url(#paint78_linear_8969_2934)" stroke-width="1.55132"/>
<path d="M613.292 934.739C664.429 1063.8 734.275 1168.09 805.829 1232.39C877.429 1296.73 950.519 1320.85 1008.27 1290.19C1066.02 1259.52 1097.91 1179.66 1102.49 1074.87C1107.07 970.142 1084.35 840.826 1033.21 711.769C982.077 582.712 912.232 478.421 840.678 414.121C769.078 349.779 695.987 325.656 638.237 356.32C580.488 386.984 548.601 466.848 544.017 571.641C539.437 676.367 562.155 805.682 613.292 934.739Z" stroke="url(#paint79_linear_8969_2934)" stroke-width="1.55132"/>
<path d="M614.664 938.104C668.233 1065.84 740.126 1168.57 813.024 1231.4C885.968 1294.26 959.696 1317.02 1017.07 1285.43C1074.44 1253.84 1105.01 1173.66 1107.75 1069.12C1110.49 964.646 1085.41 836.144 1031.84 708.403C978.275 580.662 906.382 477.939 833.484 415.111C760.54 352.243 686.812 329.49 629.437 361.081C572.063 392.671 541.499 472.848 538.759 577.388C536.021 681.861 561.095 810.363 614.664 938.104Z" stroke="url(#paint80_linear_8969_2934)" stroke-width="1.55132"/>
<path d="M616.097 941.435C672.083 1067.82 746.001 1168.94 820.22 1230.28C894.487 1291.66 968.83 1313.03 1025.81 1280.53C1082.79 1248.02 1112.02 1167.55 1112.92 1063.3C1113.82 959.109 1086.39 831.46 1030.41 705.074C974.423 578.688 900.505 477.564 826.285 416.228C752.019 354.852 677.676 333.476 620.694 365.983C563.713 398.491 534.482 478.955 533.586 583.211C532.69 687.4 560.112 815.05 616.097 941.435Z" stroke="url(#paint81_linear_8969_2934)" stroke-width="1.55132"/>
<path d="M617.595 944.73C675.98 1069.72 751.901 1169.21 827.419 1229.04C902.985 1288.91 977.92 1308.9 1034.49 1275.48C1091.06 1242.07 1118.95 1161.34 1118 1057.4C1117.06 953.529 1087.3 826.772 1028.91 701.779C970.527 576.786 894.605 477.294 819.087 417.467C743.522 357.602 668.586 337.609 612.015 371.024C555.444 404.439 527.555 485.167 528.503 589.105C529.45 692.98 559.211 819.737 617.595 944.73Z" stroke="url(#paint82_linear_8969_2934)" stroke-width="1.55132"/>
<path d="M619.156 947.987C679.922 1071.55 757.823 1169.38 834.617 1227.68C911.459 1286.01 986.964 1304.62 1043.11 1270.31C1099.25 1235.99 1125.79 1155.03 1123 1051.44C1120.21 947.91 1088.12 822.082 1027.35 698.521C966.585 574.96 888.684 477.129 811.89 418.829C735.048 360.494 659.543 341.891 603.399 376.202C547.256 410.514 520.718 491.481 523.509 595.071C526.299 698.598 558.39 824.426 619.156 947.987Z" stroke="url(#paint83_linear_8969_2934)" stroke-width="1.55132"/>
<path d="M620.779 951.206C683.907 1073.3 763.765 1169.44 841.812 1226.19C919.906 1282.98 995.958 1300.19 1051.66 1264.99C1107.36 1229.79 1132.53 1148.61 1127.9 1045.4C1123.27 942.252 1088.86 817.393 1025.73 695.301C962.6 573.209 882.743 477.068 804.696 420.315C726.602 363.526 650.55 346.318 594.851 381.517C539.153 416.715 513.973 497.896 518.607 601.107C523.239 704.255 557.651 829.114 620.779 951.206Z" stroke="url(#paint84_linear_8969_2934)" stroke-width="1.55132"/>
<path d="M622.463 954.387C687.935 1074.97 769.724 1169.39 849 1224.58C928.324 1279.81 1004.9 1295.62 1060.14 1259.54C1115.37 1223.47 1139.19 1142.1 1132.71 1039.3C1126.24 936.56 1089.52 812.707 1024.04 692.121C958.572 571.535 876.783 477.114 797.508 421.923C718.184 366.699 641.608 350.892 586.372 386.966C531.136 423.04 507.322 504.41 513.798 607.21C520.269 709.949 556.991 833.801 622.463 954.387Z" stroke="url(#paint85_linear_8969_2934)" stroke-width="1.55132"/>
<path d="M624.21 957.527C692.005 1076.57 775.701 1169.24 856.182 1222.85C936.71 1276.5 1013.79 1290.9 1068.54 1253.96C1123.3 1217.02 1145.74 1135.49 1137.43 1033.13C1129.12 930.831 1090.1 808.022 1022.3 688.979C954.504 569.936 870.808 477.265 790.328 423.653C709.799 370.01 632.723 355.608 577.966 392.547C523.209 429.486 500.769 511.02 509.083 613.378C517.393 715.675 556.414 838.484 624.21 957.527Z" stroke="url(#paint86_linear_8969_2934)" stroke-width="1.55132"/>
<path d="M626.016 960.627C696.114 1078.09 781.691 1168.99 863.352 1221C945.061 1273.05 1022.61 1286.04 1076.88 1248.25C1131.14 1210.45 1152.2 1128.78 1142.04 1026.9C1131.9 925.071 1090.59 803.344 1020.49 685.88C950.394 568.416 864.817 477.521 783.156 425.506C701.447 373.459 623.895 360.468 569.633 398.26C515.372 436.052 494.312 517.726 504.463 619.611C514.609 721.436 555.917 843.163 626.016 960.627Z" stroke="url(#paint87_linear_8969_2934)" stroke-width="1.55132"/>
<path d="M627.881 963.686C700.261 1079.53 787.693 1168.62 870.51 1219.03C953.374 1269.46 1031.38 1281.04 1085.13 1242.4C1138.88 1203.77 1158.55 1121.98 1146.57 1020.6C1134.59 919.281 1091.01 798.672 1018.63 682.823C946.245 566.973 858.813 477.884 775.997 427.48C693.132 377.047 615.126 365.469 561.377 404.103C507.628 442.738 487.955 524.526 499.94 625.906C511.918 727.228 555.501 847.836 627.881 963.686Z" stroke="url(#paint88_linear_8969_2934)" stroke-width="1.55132"/>
<path d="M629.808 966.701C704.448 1080.9 793.709 1168.16 877.655 1216.93C961.65 1265.74 1040.09 1275.9 1093.31 1236.43C1146.53 1196.97 1164.81 1115.09 1150.99 1014.25C1137.18 913.46 1091.34 794.007 1016.7 679.808C942.061 565.608 852.8 478.35 768.854 429.574C684.859 380.769 606.423 370.609 553.203 410.073C499.983 449.538 481.703 531.415 495.518 632.261C509.325 733.048 555.169 852.501 629.808 966.701Z" stroke="url(#paint89_linear_8969_2934)" stroke-width="1.55132"/>
<path d="M631.793 969.671C708.669 1082.19 799.731 1167.59 884.782 1214.72C969.882 1261.88 1048.72 1270.62 1101.4 1230.34C1154.07 1190.06 1170.95 1108.11 1155.31 1007.83C1139.68 907.612 1091.59 789.35 1014.71 676.836C937.839 564.321 846.776 478.922 761.725 431.787C676.625 384.625 597.785 375.886 545.11 416.168C492.435 456.451 475.553 538.393 491.194 638.673C506.825 738.895 554.916 857.157 631.793 969.671Z" stroke="url(#paint90_linear_8969_2934)" stroke-width="1.55132"/>
<path d="M633.836 972.598C712.926 1083.39 805.762 1166.91 891.892 1212.39C978.071 1257.89 1057.29 1265.21 1109.41 1224.12C1161.52 1183.03 1177 1101.05 1159.54 1001.37C1142.09 901.739 1091.76 784.704 1012.67 673.909C933.582 563.114 840.746 479.598 754.616 434.12C668.438 388.615 589.215 381.3 537.102 422.388C484.989 463.477 469.51 545.458 486.971 645.142C504.423 744.769 554.747 861.803 633.836 972.598Z" stroke="url(#paint91_linear_8969_2934)" stroke-width="1.55132"/>
<path d="M635.937 975.479C717.216 1084.52 811.798 1166.13 898.98 1209.94C986.211 1253.77 1065.79 1259.66 1117.33 1217.78C1168.86 1175.9 1182.93 1093.9 1163.66 994.843C1144.39 895.842 1091.85 780.07 1010.57 671.028C929.291 561.986 834.709 480.38 747.527 436.571C660.296 392.738 580.716 386.849 529.18 428.73C477.644 470.611 463.573 552.607 482.851 651.664C502.117 750.666 554.658 866.437 635.937 975.479Z" stroke="url(#paint92_linear_8969_2934)" stroke-width="1.55132"/>
<path d="M638.094 978.315C721.538 1085.57 817.836 1165.24 906.044 1207.37C994.302 1249.52 1074.21 1253.98 1125.16 1211.32C1176.1 1168.65 1188.76 1086.67 1167.67 988.269C1146.6 889.923 1091.85 775.451 1008.41 668.194C924.968 560.938 828.669 481.266 740.461 439.141C652.203 396.992 572.29 392.531 521.348 435.193C470.405 477.854 457.746 559.84 478.834 658.24C499.909 756.586 554.651 871.059 638.094 978.315Z" stroke="url(#paint93_linear_8969_2934)" stroke-width="1.55132"/>
<path d="M640.31 981.102C725.893 1086.54 823.879 1164.25 913.086 1204.68C1002.34 1245.13 1082.56 1248.17 1132.9 1204.74C1183.23 1161.31 1194.47 1079.36 1171.58 981.643C1148.71 883.983 1091.78 770.844 1006.2 665.406C920.615 559.968 822.629 482.255 733.422 441.826C644.164 401.375 563.943 398.343 513.609 441.772C463.276 485.201 452.033 567.15 474.923 664.865C497.801 762.524 554.728 875.664 640.31 981.102Z" stroke="url(#paint94_linear_8969_2934)" stroke-width="1.55132"/>
<path d="M642.581 983.841C730.277 1087.43 829.921 1163.16 920.1 1201.88C1010.33 1240.62 1090.84 1242.22 1140.54 1198.04C1190.25 1153.86 1200.08 1071.97 1175.39 974.97C1150.72 878.026 1091.62 766.254 1003.93 662.667C916.232 559.08 816.588 483.349 726.409 444.629C636.179 405.887 555.674 404.285 505.965 448.468C456.255 492.651 446.432 574.539 471.119 671.538C495.792 768.482 554.886 880.254 642.581 983.841Z" stroke="url(#paint95_linear_8969_2934)" stroke-width="1.55132"/>
<path d="M644.905 986.533C734.687 1088.24 835.958 1161.96 927.082 1198.96C1018.26 1235.98 1099.02 1236.15 1148.09 1191.23C1197.16 1146.31 1205.56 1064.5 1179.09 968.252C1152.63 872.052 1091.38 761.682 1001.6 659.977C911.818 558.272 810.547 484.547 719.423 447.547C628.249 410.526 547.484 410.355 498.414 455.279C449.344 500.202 440.943 582.005 467.419 678.258C493.88 774.457 555.123 884.828 644.905 986.533Z" stroke="url(#paint96_linear_8969_2934)" stroke-width="1.55132"/>
<path d="M647.286 989.172C739.127 1088.96 841.994 1160.66 934.035 1195.93C1026.13 1231.22 1107.13 1229.96 1155.54 1184.31C1203.96 1138.66 1210.93 1056.97 1182.68 961.487C1154.44 866.062 1091.06 757.127 999.221 657.335C907.38 557.544 804.513 485.847 712.472 450.578C620.38 415.289 539.38 416.549 490.965 462.2C442.55 507.85 435.574 589.542 463.83 685.02C492.071 780.446 555.445 889.381 647.286 989.172Z" stroke="url(#paint97_linear_8969_2934)" stroke-width="1.55132"/>
<path d="M649.718 991.763C743.591 1089.61 848.023 1159.26 940.953 1192.78C1033.93 1226.33 1115.14 1223.64 1162.89 1177.28C1210.64 1130.91 1216.18 1049.36 1186.16 954.682C1156.14 860.06 1090.66 752.593 996.786 654.745C902.914 556.897 798.482 487.25 705.552 453.723C612.571 420.178 531.361 422.869 483.615 469.232C435.869 515.595 430.32 597.151 460.349 691.826C490.361 786.448 555.846 893.915 649.718 991.763Z" stroke="url(#paint98_linear_8969_2934)" stroke-width="1.55132"/>
<path d="M652.206 994.301C748.081 1090.18 854.046 1157.75 947.836 1189.53C1041.68 1221.32 1123.07 1217.2 1170.14 1170.14C1217.2 1123.07 1221.32 1041.68 1189.53 947.837C1157.75 854.047 1090.18 748.081 994.3 652.206C898.426 556.332 792.46 488.755 698.67 456.981C604.828 425.189 523.432 429.31 476.371 476.371C429.309 523.433 425.189 604.828 456.98 698.671C488.755 792.461 556.331 898.426 652.206 994.301Z" stroke="url(#paint99_linear_8969_2934)" stroke-width="1.55132"/>
<defs>
<linearGradient id="paint0_linear_8969_2934" x1="889.871" y1="922.886" x2="741.75" y2="729.197" gradientUnits="userSpaceOnUse">
<stop stop-color="#AC6700"/>
<stop offset="1" stop-color="#ED5A00"/>
</linearGradient>
<linearGradient id="paint1_linear_8969_2934" x1="891.826" y1="921.39" x2="740.97" y2="730.055" gradientUnits="userSpaceOnUse">
<stop stop-color="#AC6700"/>
<stop offset="1" stop-color="#ED5A00"/>
</linearGradient>
<linearGradient id="paint2_linear_8969_2934" x1="893.762" y1="919.863" x2="740.2" y2="730.901" gradientUnits="userSpaceOnUse">
<stop stop-color="#AC6700"/>
<stop offset="1" stop-color="#ED5A00"/>
</linearGradient>
<linearGradient id="paint3_linear_8969_2934" x1="895.675" y1="918.308" x2="739.433" y2="731.738" gradientUnits="userSpaceOnUse">
<stop stop-color="#AC6700"/>
<stop offset="1" stop-color="#ED5A00"/>
</linearGradient>
<linearGradient id="paint4_linear_8969_2934" x1="897.567" y1="916.724" x2="738.671" y2="732.565" gradientUnits="userSpaceOnUse">
<stop stop-color="#AC6700"/>
<stop offset="1" stop-color="#ED5A00"/>
</linearGradient>
<linearGradient id="paint5_linear_8969_2934" x1="899.436" y1="915.11" x2="737.911" y2="733.383" gradientUnits="userSpaceOnUse">
<stop stop-color="#AC6700"/>
<stop offset="1" stop-color="#ED5A00"/>
</linearGradient>
<linearGradient id="paint6_linear_8969_2934" x1="901.281" y1="913.469" x2="737.153" y2="734.192" gradientUnits="userSpaceOnUse">
<stop stop-color="#AC6700"/>
<stop offset="1" stop-color="#ED5A00"/>
</linearGradient>
<linearGradient id="paint7_linear_8969_2934" x1="903.104" y1="911.8" x2="736.395" y2="734.994" gradientUnits="userSpaceOnUse">
<stop stop-color="#AC6700"/>
<stop offset="1" stop-color="#ED5A00"/>
</linearGradient>
<linearGradient id="paint8_linear_8969_2934" x1="904.9" y1="910.105" x2="735.634" y2="735.791" gradientUnits="userSpaceOnUse">
<stop stop-color="#AC6700"/>
<stop offset="1" stop-color="#ED5A00"/>
</linearGradient>
<linearGradient id="paint9_linear_8969_2934" x1="906.674" y1="908.382" x2="734.873" y2="736.581" gradientUnits="userSpaceOnUse">
<stop stop-color="#AC6700"/>
<stop offset="1" stop-color="#ED5A00"/>
</linearGradient>
<linearGradient id="paint10_linear_8969_2934" x1="908.421" y1="906.636" x2="734.107" y2="737.369" gradientUnits="userSpaceOnUse">
<stop stop-color="#AC6700"/>
<stop offset="1" stop-color="#ED5A00"/>
</linearGradient>
<linearGradient id="paint11_linear_8969_2934" x1="910.142" y1="904.862" x2="733.336" y2="738.153" gradientUnits="userSpaceOnUse">
<stop stop-color="#AC6700"/>
<stop offset="1" stop-color="#ED5A00"/>
</linearGradient>
<linearGradient id="paint12_linear_8969_2934" x1="911.836" y1="903.063" x2="732.56" y2="738.935" gradientUnits="userSpaceOnUse">
<stop stop-color="#AC6700"/>
<stop offset="1" stop-color="#ED5A00"/>
</linearGradient>
<linearGradient id="paint13_linear_8969_2934" x1="913.504" y1="901.241" x2="731.777" y2="739.716" gradientUnits="userSpaceOnUse">
<stop stop-color="#AC6700"/>
<stop offset="1" stop-color="#ED5A00"/>
</linearGradient>
<linearGradient id="paint14_linear_8969_2934" x1="915.145" y1="899.395" x2="730.987" y2="740.5" gradientUnits="userSpaceOnUse">
<stop stop-color="#AC6700"/>
<stop offset="1" stop-color="#ED5A00"/>
</linearGradient>
<linearGradient id="paint15_linear_8969_2934" x1="916.758" y1="897.525" x2="730.189" y2="741.283" gradientUnits="userSpaceOnUse">
<stop stop-color="#AC6700"/>
<stop offset="1" stop-color="#ED5A00"/>
</linearGradient>
<linearGradient id="paint16_linear_8969_2934" x1="918.341" y1="895.634" x2="729.379" y2="742.071" gradientUnits="userSpaceOnUse">
<stop stop-color="#AC6700"/>
<stop offset="1" stop-color="#ED5A00"/>
</linearGradient>
<linearGradient id="paint17_linear_8969_2934" x1="919.895" y1="893.721" x2="728.56" y2="742.865" gradientUnits="userSpaceOnUse">
<stop stop-color="#AC6700"/>
<stop offset="1" stop-color="#ED5A00"/>
</linearGradient>
<linearGradient id="paint18_linear_8969_2934" x1="921.422" y1="891.784" x2="727.733" y2="743.663" gradientUnits="userSpaceOnUse">
<stop stop-color="#AC6700"/>
<stop offset="1" stop-color="#ED5A00"/>
</linearGradient>
<linearGradient id="paint19_linear_8969_2934" x1="922.917" y1="889.828" x2="726.892" y2="744.47" gradientUnits="userSpaceOnUse">
<stop stop-color="#AC6700"/>
<stop offset="1" stop-color="#ED5A00"/>
</linearGradient>
<linearGradient id="paint20_linear_8969_2934" x1="924.382" y1="887.852" x2="726.04" y2="745.287" gradientUnits="userSpaceOnUse">
<stop stop-color="#AC6700"/>
<stop offset="1" stop-color="#ED5A00"/>
</linearGradient>
<linearGradient id="paint21_linear_8969_2934" x1="925.817" y1="885.855" x2="725.177" y2="746.113" gradientUnits="userSpaceOnUse">
<stop stop-color="#AC6700"/>
<stop offset="1" stop-color="#ED5A00"/>
</linearGradient>
<linearGradient id="paint22_linear_8969_2934" x1="927.221" y1="883.84" x2="724.3" y2="746.952" gradientUnits="userSpaceOnUse">
<stop stop-color="#AC6700"/>
<stop offset="1" stop-color="#ED5A00"/>
</linearGradient>
<linearGradient id="paint23_linear_8969_2934" x1="928.591" y1="881.806" x2="723.409" y2="747.805" gradientUnits="userSpaceOnUse">
<stop stop-color="#AC6700"/>
<stop offset="1" stop-color="#ED5A00"/>
</linearGradient>
<linearGradient id="paint24_linear_8969_2934" x1="929.931" y1="879.755" x2="722.507" y2="748.675" gradientUnits="userSpaceOnUse">
<stop stop-color="#AC6700"/>
<stop offset="1" stop-color="#ED5A00"/>
</linearGradient>
<linearGradient id="paint25_linear_8969_2934" x1="931.237" y1="877.686" x2="721.589" y2="749.56" gradientUnits="userSpaceOnUse">
<stop stop-color="#AC6700"/>
<stop offset="1" stop-color="#ED5A00"/>
</linearGradient>
<linearGradient id="paint26_linear_8969_2934" x1="932.512" y1="875.6" x2="720.66" y2="750.466" gradientUnits="userSpaceOnUse">
<stop stop-color="#AC6700"/>
<stop offset="1" stop-color="#ED5A00"/>
</linearGradient>
<linearGradient id="paint27_linear_8969_2934" x1="933.753" y1="873.498" x2="719.716" y2="751.392" gradientUnits="userSpaceOnUse">
<stop stop-color="#AC6700"/>
<stop offset="1" stop-color="#ED5A00"/>
</linearGradient>
<linearGradient id="paint28_linear_8969_2934" x1="934.96" y1="871.382" x2="718.759" y2="752.341" gradientUnits="userSpaceOnUse">
<stop stop-color="#AC6700"/>
<stop offset="1" stop-color="#ED5A00"/>
</linearGradient>
<linearGradient id="paint29_linear_8969_2934" x1="936.133" y1="869.251" x2="717.789" y2="753.314" gradientUnits="userSpaceOnUse">
<stop stop-color="#AC6700"/>
<stop offset="1" stop-color="#ED5A00"/>
</linearGradient>
<linearGradient id="paint30_linear_8969_2934" x1="937.272" y1="867.106" x2="716.805" y2="754.314" gradientUnits="userSpaceOnUse">
<stop stop-color="#AC6700"/>
<stop offset="1" stop-color="#ED5A00"/>
</linearGradient>
<linearGradient id="paint31_linear_8969_2934" x1="938.376" y1="864.946" x2="715.81" y2="755.341" gradientUnits="userSpaceOnUse">
<stop stop-color="#AC6700"/>
<stop offset="1" stop-color="#ED5A00"/>
</linearGradient>
<linearGradient id="paint32_linear_8969_2934" x1="939.445" y1="862.775" x2="714.801" y2="756.398" gradientUnits="userSpaceOnUse">
<stop stop-color="#AC6700"/>
<stop offset="1" stop-color="#ED5A00"/>
</linearGradient>
<linearGradient id="paint33_linear_8969_2934" x1="940.478" y1="860.592" x2="713.78" y2="757.487" gradientUnits="userSpaceOnUse">
<stop stop-color="#AC6700"/>
<stop offset="1" stop-color="#ED5A00"/>
</linearGradient>
<linearGradient id="paint34_linear_8969_2934" x1="941.476" y1="858.397" x2="712.749" y2="758.609" gradientUnits="userSpaceOnUse">
<stop stop-color="#AC6700"/>
<stop offset="1" stop-color="#ED5A00"/>
</linearGradient>
<linearGradient id="paint35_linear_8969_2934" x1="942.437" y1="856.192" x2="711.706" y2="759.766" gradientUnits="userSpaceOnUse">
<stop stop-color="#AC6700"/>
<stop offset="1" stop-color="#ED5A00"/>
</linearGradient>
<linearGradient id="paint36_linear_8969_2934" x1="943.363" y1="853.976" x2="710.655" y2="760.96" gradientUnits="userSpaceOnUse">
<stop stop-color="#AC6700"/>
<stop offset="1" stop-color="#ED5A00"/>
</linearGradient>
<linearGradient id="paint37_linear_8969_2934" x1="944.252" y1="851.751" x2="709.594" y2="762.193" gradientUnits="userSpaceOnUse">
<stop stop-color="#AC6700"/>
<stop offset="1" stop-color="#ED5A00"/>
</linearGradient>
<linearGradient id="paint38_linear_8969_2934" x1="945.104" y1="849.517" x2="708.527" y2="763.466" gradientUnits="userSpaceOnUse">
<stop stop-color="#AC6700"/>
<stop offset="1" stop-color="#ED5A00"/>
</linearGradient>
<linearGradient id="paint39_linear_8969_2934" x1="945.919" y1="847.275" x2="707.452" y2="764.781" gradientUnits="userSpaceOnUse">
<stop stop-color="#AC6700"/>
<stop offset="1" stop-color="#ED5A00"/>
</linearGradient>
<linearGradient id="paint40_linear_8969_2934" x1="946.697" y1="845.026" x2="706.373" y2="766.14" gradientUnits="userSpaceOnUse">
<stop stop-color="#AC6700"/>
<stop offset="1" stop-color="#ED5A00"/>
</linearGradient>
<linearGradient id="paint41_linear_8969_2934" x1="947.435" y1="842.771" x2="705.286" y2="767.546" gradientUnits="userSpaceOnUse">
<stop stop-color="#AC6700"/>
<stop offset="1" stop-color="#ED5A00"/>
</linearGradient>
<linearGradient id="paint42_linear_8969_2934" x1="948.139" y1="840.509" x2="704.201" y2="768.998" gradientUnits="userSpaceOnUse">
<stop stop-color="#AC6700"/>
<stop offset="1" stop-color="#ED5A00"/>
</linearGradient>
<linearGradient id="paint43_linear_8969_2934" x1="948.802" y1="838.242" x2="703.113" y2="770.498" gradientUnits="userSpaceOnUse">
<stop stop-color="#AC6700"/>
<stop offset="1" stop-color="#ED5A00"/>
</linearGradient>
<linearGradient id="paint44_linear_8969_2934" x1="949.427" y1="835.971" x2="702.024" y2="772.051" gradientUnits="userSpaceOnUse">
<stop stop-color="#AC6700"/>
<stop offset="1" stop-color="#ED5A00"/>
</linearGradient>
<linearGradient id="paint45_linear_8969_2934" x1="950.016" y1="833.696" x2="700.941" y2="773.655" gradientUnits="userSpaceOnUse">
<stop stop-color="#AC6700"/>
<stop offset="1" stop-color="#ED5A00"/>
</linearGradient>
<linearGradient id="paint46_linear_8969_2934" x1="950.564" y1="831.418" x2="699.86" y2="775.313" gradientUnits="userSpaceOnUse">
<stop stop-color="#AC6700"/>
<stop offset="1" stop-color="#ED5A00"/>
</linearGradient>
<linearGradient id="paint47_linear_8969_2934" x1="951.076" y1="829.136" x2="698.788" y2="777.024" gradientUnits="userSpaceOnUse">
<stop stop-color="#AC6700"/>
<stop offset="1" stop-color="#ED5A00"/>
</linearGradient>
<linearGradient id="paint48_linear_8969_2934" x1="951.546" y1="826.854" x2="697.721" y2="778.793" gradientUnits="userSpaceOnUse">
<stop stop-color="#AC6700"/>
<stop offset="1" stop-color="#ED5A00"/>
</linearGradient>
<linearGradient id="paint49_linear_8969_2934" x1="951.978" y1="824.571" x2="696.666" y2="780.62" gradientUnits="userSpaceOnUse">
<stop stop-color="#AC6700"/>
<stop offset="1" stop-color="#ED5A00"/>
</linearGradient>
<linearGradient id="paint50_linear_8969_2934" x1="952.37" y1="822.287" x2="695.623" y2="782.504" gradientUnits="userSpaceOnUse">
<stop stop-color="#AC6700"/>
<stop offset="1" stop-color="#ED5A00"/>
</linearGradient>
<linearGradient id="paint51_linear_8969_2934" x1="952.724" y1="820.003" x2="694.598" y2="784.448" gradientUnits="userSpaceOnUse">
<stop stop-color="#AC6700"/>
<stop offset="1" stop-color="#ED5A00"/>
</linearGradient>
<linearGradient id="paint52_linear_8969_2934" x1="953.039" y1="817.72" x2="693.589" y2="786.453" gradientUnits="userSpaceOnUse">
<stop stop-color="#AC6700"/>
<stop offset="1" stop-color="#ED5A00"/>
</linearGradient>
<linearGradient id="paint53_linear_8969_2934" x1="953.313" y1="815.438" x2="692.601" y2="788.519" gradientUnits="userSpaceOnUse">
<stop stop-color="#AC6700"/>
<stop offset="1" stop-color="#ED5A00"/>
</linearGradient>
<linearGradient id="paint54_linear_8969_2934" x1="953.547" y1="813.16" x2="691.635" y2="790.647" gradientUnits="userSpaceOnUse">
<stop stop-color="#AC6700"/>
<stop offset="1" stop-color="#ED5A00"/>
</linearGradient>
<linearGradient id="paint55_linear_8969_2934" x1="953.743" y1="810.884" x2="690.697" y2="792.839" gradientUnits="userSpaceOnUse">
<stop stop-color="#AC6700"/>
<stop offset="1" stop-color="#ED5A00"/>
</linearGradient>
<linearGradient id="paint56_linear_8969_2934" x1="953.898" y1="808.612" x2="689.787" y2="795.093" gradientUnits="userSpaceOnUse">
<stop stop-color="#AC6700"/>
<stop offset="1" stop-color="#ED5A00"/>
</linearGradient>
<linearGradient id="paint57_linear_8969_2934" x1="954.014" y1="806.344" x2="688.911" y2="797.41" gradientUnits="userSpaceOnUse">
<stop stop-color="#AC6700"/>
<stop offset="1" stop-color="#ED5A00"/>
</linearGradient>
<linearGradient id="paint58_linear_8969_2934" x1="954.089" y1="804.082" x2="688.068" y2="799.792" gradientUnits="userSpaceOnUse">
<stop stop-color="#AC6700"/>
<stop offset="1" stop-color="#ED5A00"/>
</linearGradient>
<linearGradient id="paint59_linear_8969_2934" x1="954.125" y1="801.826" x2="687.264" y2="802.238" gradientUnits="userSpaceOnUse">
<stop stop-color="#AC6700"/>
<stop offset="1" stop-color="#ED5A00"/>
</linearGradient>
<linearGradient id="paint60_linear_8969_2934" x1="954.123" y1="799.575" x2="686.504" y2="804.747" gradientUnits="userSpaceOnUse">
<stop stop-color="#AC6700"/>
<stop offset="1" stop-color="#ED5A00"/>
</linearGradient>
<linearGradient id="paint61_linear_8969_2934" x1="954.078" y1="797.333" x2="685.786" y2="807.319" gradientUnits="userSpaceOnUse">
<stop stop-color="#AC6700"/>
<stop offset="1" stop-color="#ED5A00"/>
</linearGradient>
<linearGradient id="paint62_linear_8969_2934" x1="953.993" y1="795.098" x2="685.116" y2="809.955" gradientUnits="userSpaceOnUse">
<stop stop-color="#AC6700"/>
<stop offset="1" stop-color="#ED5A00"/>
</linearGradient>
<linearGradient id="paint63_linear_8969_2934" x1="953.87" y1="792.872" x2="684.5" y2="812.652" gradientUnits="userSpaceOnUse">
<stop stop-color="#AC6700"/>
<stop offset="1" stop-color="#ED5A00"/>
</linearGradient>
<linearGradient id="paint64_linear_8969_2934" x1="953.707" y1="790.654" x2="683.938" y2="815.409" gradientUnits="userSpaceOnUse">
<stop stop-color="#AC6700"/>
<stop offset="1" stop-color="#ED5A00"/>
</linearGradient>
<linearGradient id="paint65_linear_8969_2934" x1="953.505" y1="788.447" x2="683.437" y2="818.228" gradientUnits="userSpaceOnUse">
<stop stop-color="#AC6700"/>
<stop offset="1" stop-color="#ED5A00"/>
</linearGradient>
<linearGradient id="paint66_linear_8969_2934" x1="953.262" y1="786.25" x2="682.996" y2="821.103" gradientUnits="userSpaceOnUse">
<stop stop-color="#AC6700"/>
<stop offset="1" stop-color="#ED5A00"/>
</linearGradient>
<linearGradient id="paint67_linear_8969_2934" x1="952.979" y1="784.066" x2="682.62" y2="824.038" gradientUnits="userSpaceOnUse">
<stop stop-color="#AC6700"/>
<stop offset="1" stop-color="#ED5A00"/>
</linearGradient>
<linearGradient id="paint68_linear_8969_2934" x1="952.657" y1="781.892" x2="682.313" y2="827.027" gradientUnits="userSpaceOnUse">
<stop stop-color="#AC6700"/>
<stop offset="1" stop-color="#ED5A00"/>
</linearGradient>
<linearGradient id="paint69_linear_8969_2934" x1="952.297" y1="779.731" x2="682.081" y2="830.069" gradientUnits="userSpaceOnUse">
<stop stop-color="#AC6700"/>
<stop offset="1" stop-color="#ED5A00"/>
</linearGradient>
<linearGradient id="paint70_linear_8969_2934" x1="951.896" y1="777.583" x2="681.922" y2="833.162" gradientUnits="userSpaceOnUse">
<stop stop-color="#AC6700"/>
<stop offset="1" stop-color="#ED5A00"/>
</linearGradient>
<linearGradient id="paint71_linear_8969_2934" x1="951.456" y1="775.45" x2="681.843" y2="836.304" gradientUnits="userSpaceOnUse">
<stop stop-color="#AC6700"/>
<stop offset="1" stop-color="#ED5A00"/>
</linearGradient>
<linearGradient id="paint72_linear_8969_2934" x1="950.978" y1="773.331" x2="681.847" y2="839.492" gradientUnits="userSpaceOnUse">
<stop stop-color="#AC6700"/>
<stop offset="1" stop-color="#ED5A00"/>
</linearGradient>
<linearGradient id="paint73_linear_8969_2934" x1="950.459" y1="771.228" x2="681.934" y2="842.724" gradientUnits="userSpaceOnUse">
<stop stop-color="#AC6700"/>
<stop offset="1" stop-color="#ED5A00"/>
</linearGradient>
<linearGradient id="paint74_linear_8969_2934" x1="949.904" y1="769.139" x2="682.113" y2="845.994" gradientUnits="userSpaceOnUse">
<stop stop-color="#AC6700"/>
<stop offset="1" stop-color="#ED5A00"/>
</linearGradient>
<linearGradient id="paint75_linear_8969_2934" x1="949.308" y1="767.068" x2="682.381" y2="849.302" gradientUnits="userSpaceOnUse">
<stop stop-color="#AC6700"/>
<stop offset="1" stop-color="#ED5A00"/>
</linearGradient>
<linearGradient id="paint76_linear_8969_2934" x1="948.675" y1="765.013" x2="682.745" y2="852.642" gradientUnits="userSpaceOnUse">
<stop stop-color="#AC6700"/>
<stop offset="1" stop-color="#ED5A00"/>
</linearGradient>
<linearGradient id="paint77_linear_8969_2934" x1="948.005" y1="762.977" x2="683.205" y2="856.012" gradientUnits="userSpaceOnUse">
<stop stop-color="#AC6700"/>
<stop offset="1" stop-color="#ED5A00"/>
</linearGradient>
<linearGradient id="paint78_linear_8969_2934" x1="947.294" y1="760.959" x2="683.762" y2="859.407" gradientUnits="userSpaceOnUse">
<stop stop-color="#AC6700"/>
<stop offset="1" stop-color="#ED5A00"/>
</linearGradient>
<linearGradient id="paint79_linear_8969_2934" x1="946.547" y1="758.96" x2="684.422" y2="862.823" gradientUnits="userSpaceOnUse">
<stop stop-color="#AC6700"/>
<stop offset="1" stop-color="#ED5A00"/>
</linearGradient>
<linearGradient id="paint80_linear_8969_2934" x1="945.762" y1="756.98" x2="685.186" y2="866.255" gradientUnits="userSpaceOnUse">
<stop stop-color="#AC6700"/>
<stop offset="1" stop-color="#ED5A00"/>
</linearGradient>
<linearGradient id="paint81_linear_8969_2934" x1="944.939" y1="755.021" x2="686.054" y2="869.7" gradientUnits="userSpaceOnUse">
<stop stop-color="#AC6700"/>
<stop offset="1" stop-color="#ED5A00"/>
</linearGradient>
<linearGradient id="paint82_linear_8969_2934" x1="944.08" y1="753.082" x2="687.029" y2="873.152" gradientUnits="userSpaceOnUse">
<stop stop-color="#AC6700"/>
<stop offset="1" stop-color="#ED5A00"/>
</linearGradient>
<linearGradient id="paint83_linear_8969_2934" x1="943.184" y1="751.165" x2="688.112" y2="876.606" gradientUnits="userSpaceOnUse">
<stop stop-color="#AC6700"/>
<stop offset="1" stop-color="#ED5A00"/>
</linearGradient>
<linearGradient id="paint84_linear_8969_2934" x1="942.252" y1="749.269" x2="689.304" y2="880.057" gradientUnits="userSpaceOnUse">
<stop stop-color="#AC6700"/>
<stop offset="1" stop-color="#ED5A00"/>
</linearGradient>
<linearGradient id="paint85_linear_8969_2934" x1="941.283" y1="747.396" x2="690.605" y2="883.501" gradientUnits="userSpaceOnUse">
<stop stop-color="#AC6700"/>
<stop offset="1" stop-color="#ED5A00"/>
</linearGradient>
<linearGradient id="paint86_linear_8969_2934" x1="940.279" y1="745.546" x2="692.018" y2="886.932" gradientUnits="userSpaceOnUse">
<stop stop-color="#AC6700"/>
<stop offset="1" stop-color="#ED5A00"/>
</linearGradient>
<linearGradient id="paint87_linear_8969_2934" x1="939.238" y1="743.72" x2="693.539" y2="890.345" gradientUnits="userSpaceOnUse">
<stop stop-color="#AC6700"/>
<stop offset="1" stop-color="#ED5A00"/>
</linearGradient>
<linearGradient id="paint88_linear_8969_2934" x1="938.161" y1="741.919" x2="695.169" y2="893.735" gradientUnits="userSpaceOnUse">
<stop stop-color="#AC6700"/>
<stop offset="1" stop-color="#ED5A00"/>
</linearGradient>
<linearGradient id="paint89_linear_8969_2934" x1="937.052" y1="740.142" x2="696.911" y2="897.096" gradientUnits="userSpaceOnUse">
<stop stop-color="#AC6700"/>
<stop offset="1" stop-color="#ED5A00"/>
</linearGradient>
<linearGradient id="paint90_linear_8969_2934" x1="935.906" y1="738.389" x2="698.759" y2="900.421" gradientUnits="userSpaceOnUse">
<stop stop-color="#AC6700"/>
<stop offset="1" stop-color="#ED5A00"/>
</linearGradient>
<linearGradient id="paint91_linear_8969_2934" x1="934.726" y1="736.664" x2="700.716" y2="903.708" gradientUnits="userSpaceOnUse">
<stop stop-color="#AC6700"/>
<stop offset="1" stop-color="#ED5A00"/>
</linearGradient>
<linearGradient id="paint92_linear_8969_2934" x1="933.512" y1="734.964" x2="702.778" y2="906.95" gradientUnits="userSpaceOnUse">
<stop stop-color="#AC6700"/>
<stop offset="1" stop-color="#ED5A00"/>
</linearGradient>
<linearGradient id="paint93_linear_8969_2934" x1="932.264" y1="733.293" x2="704.944" y2="910.143" gradientUnits="userSpaceOnUse">
<stop stop-color="#AC6700"/>
<stop offset="1" stop-color="#ED5A00"/>
</linearGradient>
<linearGradient id="paint94_linear_8969_2934" x1="930.984" y1="731.647" x2="707.213" y2="913.279" gradientUnits="userSpaceOnUse">
<stop stop-color="#AC6700"/>
<stop offset="1" stop-color="#ED5A00"/>
</linearGradient>
<linearGradient id="paint95_linear_8969_2934" x1="929.672" y1="730.029" x2="709.582" y2="916.355" gradientUnits="userSpaceOnUse">
<stop stop-color="#AC6700"/>
<stop offset="1" stop-color="#ED5A00"/>
</linearGradient>
<linearGradient id="paint96_linear_8969_2934" x1="928.324" y1="728.441" x2="712.044" y2="919.367" gradientUnits="userSpaceOnUse">
<stop stop-color="#AC6700"/>
<stop offset="1" stop-color="#ED5A00"/>
</linearGradient>
<linearGradient id="paint97_linear_8969_2934" x1="926.947" y1="726.88" x2="714.603" y2="922.307" gradientUnits="userSpaceOnUse">
<stop stop-color="#AC6700"/>
<stop offset="1" stop-color="#ED5A00"/>
</linearGradient>
<linearGradient id="paint98_linear_8969_2934" x1="925.537" y1="725.35" x2="717.249" y2="925.174" gradientUnits="userSpaceOnUse">
<stop stop-color="#AC6700"/>
<stop offset="1" stop-color="#ED5A00"/>
</linearGradient>
<linearGradient id="paint99_linear_8969_2934" x1="924.097" y1="723.849" x2="719.985" y2="927.961" gradientUnits="userSpaceOnUse">
<stop stop-color="#AC6700"/>
<stop offset="1" stop-color="#ED5A00"/>
</linearGradient>
</defs>
</svg>
