<svg width="430" height="210" viewBox="0 0 430 210" fill="none" xmlns="http://www.w3.org/2000/svg">
<path d="M647.051 -232.616C631.914 -254.771 605.197 -266.604 569.656 -268.893C534.12 -271.182 489.871 -263.919 439.853 -248.006C339.825 -216.182 216.887 -149.813 94.7695 -56.4246C-27.3477 36.9632 -125.472 139.649 -185.406 230.154C-215.375 275.409 -235.77 317.584 -244.861 354C-253.952 390.421 -251.711 420.971 -236.573 443.126C-221.436 465.28 -194.72 477.112 -159.179 479.401C-123.643 481.69 -79.3937 474.428 -29.3764 458.515C70.6515 426.691 193.589 360.322 315.707 266.934C437.824 173.546 535.949 70.8599 595.883 -19.6452C625.851 -64.9007 646.247 -107.075 655.337 -143.491C664.429 -179.912 662.188 -210.462 647.051 -232.616Z" stroke="#ED5A00" stroke-width="1.48538"/>
<path d="M642.334 -239.369C626.761 -261.185 599.759 -272.507 564.075 -274.159C528.397 -275.811 484.149 -267.787 434.27 -251.039C334.518 -217.544 212.402 -149.209 91.5879 -53.9542C-29.2257 41.3001 -125.812 145.399 -184.315 236.678C-213.568 282.321 -233.276 324.722 -241.748 361.184C-250.22 397.651 -247.432 428.064 -231.859 449.88C-216.287 471.695 -189.284 483.015 -153.6 484.668C-117.922 486.32 -73.6736 478.297 -23.7944 461.548C75.9571 428.054 198.072 359.718 318.886 264.464C439.7 169.209 536.287 65.111 594.79 -26.1684C624.044 -71.8112 643.751 -114.213 652.222 -150.675C660.695 -187.142 657.906 -217.554 642.334 -239.369Z" stroke="#ED5A00" stroke-width="1.48538"/>
<path d="M637.485 -246.019C621.482 -267.488 594.202 -278.296 558.387 -279.311C522.577 -280.326 478.344 -271.544 428.618 -253.965C329.173 -218.81 207.917 -148.529 88.4435 -51.4368C-31.0302 45.6553 -126.051 151.135 -183.105 243.161C-211.634 289.177 -230.648 331.793 -238.497 368.289C-246.349 404.79 -243.012 435.056 -227.009 456.526C-211.006 477.995 -183.726 488.803 -147.911 489.818C-112.101 490.833 -67.8676 482.051 -18.1419 464.473C81.303 429.317 202.559 359.035 322.033 261.943C441.507 164.851 536.527 59.3726 593.581 -32.6534C622.11 -78.6695 641.123 -121.286 648.973 -157.782C656.824 -194.283 653.488 -224.549 637.485 -246.019Z" stroke="#ED5A00" stroke-width="1.48538"/>
<path d="M632.505 -252.559C616.076 -273.676 588.527 -283.967 552.591 -284.345C516.66 -284.722 472.454 -275.185 422.897 -256.781C323.789 -219.976 203.43 -147.769 85.333 -48.8689C-32.7637 50.0309 -126.189 156.858 -181.777 249.602C-209.572 295.978 -227.886 338.796 -235.112 375.315C-242.339 411.84 -238.457 441.951 -222.029 463.068C-205.6 484.186 -178.05 494.476 -142.113 494.853C-106.183 495.231 -61.978 485.692 -12.4208 467.289C86.6869 430.483 207.046 358.277 325.143 259.377C443.24 160.477 536.665 53.6502 592.253 -39.0943C620.049 -85.4697 638.363 -128.287 645.589 -164.806C652.816 -201.331 648.934 -231.442 632.505 -252.559Z" stroke="#ED5A00" stroke-width="1.48538"/>
<path d="M627.394 -258.991C610.544 -279.75 582.734 -289.52 546.687 -289.26C510.646 -288.999 466.484 -278.709 417.111 -259.486C318.37 -221.042 198.944 -146.933 82.2596 -46.2551C-34.4243 54.4226 -126.225 162.565 -180.33 256C-207.385 302.72 -224.993 345.727 -231.593 382.258C-238.194 418.795 -233.767 448.742 -216.917 469.501C-200.067 490.259 -172.257 500.029 -136.211 499.769C-100.17 499.509 -56.007 489.218 -6.6334 469.995C92.107 431.551 211.533 357.442 328.217 256.764C444.901 156.086 536.703 47.9435 590.807 -45.4913C617.862 -92.2119 635.469 -135.218 642.069 -171.749C648.67 -208.286 644.244 -238.232 627.394 -258.991Z" stroke="#ED5A00" stroke-width="1.48538"/>
<path d="M622.154 -265.312C604.889 -285.707 576.826 -294.952 540.68 -294.054C504.541 -293.157 460.434 -282.117 411.259 -262.081C312.916 -222.01 194.459 -146.021 79.223 -43.5965C-36.0129 58.8285 -126.162 168.255 -178.767 262.351C-205.071 309.403 -221.967 352.584 -227.939 389.117C-233.912 425.655 -228.943 455.427 -211.677 475.821C-194.412 496.215 -166.349 505.461 -130.204 504.563C-94.064 503.665 -49.9568 492.626 -0.781939 472.589C97.5611 432.519 216.017 356.529 331.253 254.104C446.489 151.679 536.639 42.2539 589.244 -51.8426C615.548 -98.8941 632.444 -142.076 638.416 -178.608C644.389 -215.146 639.42 -244.918 622.154 -265.312Z" stroke="#ED5A00" stroke-width="1.48538"/>
<path d="M616.787 -271.52C599.111 -291.544 570.804 -300.264 534.571 -298.729C498.343 -297.194 454.306 -285.408 405.345 -264.564C307.429 -222.878 189.978 -145.032 76.2257 -40.8914C-37.5269 63.2496 -125.997 173.925 -177.086 268.655C-202.633 316.022 -218.813 359.366 -224.155 395.888C-229.498 432.416 -223.987 462.006 -206.311 482.029C-188.635 502.053 -160.327 510.772 -124.094 509.237C-87.8664 507.702 -43.8282 495.916 5.13282 475.072C103.048 433.387 220.499 355.54 334.251 251.399C448.004 147.258 536.474 36.5835 587.564 -58.1461C613.111 -105.514 629.29 -148.858 634.632 -185.38C639.975 -221.908 634.463 -251.497 616.787 -271.52Z" stroke="#ED5A00" stroke-width="1.48538"/>
<path d="M611.296 -277.615C593.215 -297.261 564.673 -305.452 528.363 -303.28C492.058 -301.108 448.103 -288.58 399.37 -266.935C301.912 -223.648 185.502 -143.968 73.2679 -38.1433C-38.9667 67.6819 -125.73 179.573 -175.289 274.907C-200.069 322.577 -215.528 366.07 -220.238 402.57C-224.949 439.077 -218.899 468.475 -200.818 488.121C-182.737 507.768 -154.193 515.958 -117.883 513.786C-81.5788 511.614 -37.6231 499.086 11.1092 477.441C108.568 434.154 224.976 354.474 337.211 248.649C449.445 142.824 536.21 30.9331 585.768 -64.4008C610.549 -112.071 626.007 -155.563 630.718 -192.064C635.429 -228.571 629.377 -257.969 611.296 -277.615Z" stroke="#ED5A00" stroke-width="1.48538"/>
<path d="M605.679 -283.591C587.198 -302.855 558.429 -310.514 522.053 -307.706C485.683 -304.898 441.823 -291.63 393.334 -269.191C296.362 -224.315 181.03 -142.827 70.3475 -35.3496C-40.3347 72.1274 -125.365 185.2 -173.377 281.109C-197.385 329.067 -212.118 372.695 -216.195 409.163C-220.273 445.638 -213.684 474.835 -195.203 494.098C-176.721 513.362 -147.952 521.022 -111.576 518.213C-75.206 515.405 -31.3459 502.138 17.1431 479.698C114.114 434.822 229.446 353.334 340.128 245.857C450.81 138.38 535.842 25.3077 583.854 -70.6013C607.861 -118.559 622.594 -162.188 626.672 -198.656C630.75 -235.13 624.16 -264.327 605.679 -283.591Z" stroke="#ED5A00" stroke-width="1.48538"/>
<path d="M599.942 -289.45C581.066 -308.325 552.079 -315.451 515.648 -312.007C479.223 -308.564 435.473 -294.562 387.242 -271.334C290.787 -224.883 176.567 -141.611 67.4708 -32.5146C-41.6255 76.5817 -124.898 190.801 -171.349 287.256C-194.576 335.487 -208.578 379.238 -212.021 415.663C-215.465 452.093 -208.34 481.081 -189.464 499.956C-170.589 518.831 -141.602 525.957 -105.171 522.513C-68.7463 519.07 -24.9948 505.068 23.2359 481.841C119.691 435.39 233.91 352.117 343.006 243.021C452.103 133.924 535.376 19.7055 581.827 -76.7495C605.054 -124.98 619.055 -168.732 622.499 -205.156C625.942 -241.587 618.817 -270.575 599.942 -289.45Z" stroke="#ED5A00" stroke-width="1.48538"/>
<path d="M594.083 -295.187C574.819 -313.668 545.623 -320.257 509.148 -316.179C472.68 -312.102 429.051 -297.369 381.094 -273.361C285.184 -225.349 172.112 -140.318 64.6345 -29.6359C-42.8425 81.0463 -124.33 196.378 -169.206 293.349C-191.646 341.839 -204.913 385.699 -207.721 422.069C-210.529 458.445 -202.87 487.214 -183.606 505.695C-164.342 524.176 -135.146 530.766 -98.6712 526.688C-62.2029 522.61 -18.5743 507.877 29.3834 483.87C125.292 435.857 238.364 350.827 345.841 240.144C453.318 129.462 534.807 14.1305 579.683 -82.841C602.123 -131.33 615.39 -175.19 618.198 -211.56C621.006 -247.936 613.347 -276.706 594.083 -295.187Z" stroke="#ED5A00" stroke-width="1.48538"/>
<path d="M588.106 -300.803C568.46 -318.884 539.063 -324.935 502.556 -320.224C466.055 -315.514 422.563 -300.055 374.893 -275.274C279.559 -225.716 167.667 -138.952 61.8423 -26.718C-43.9829 85.5166 -123.662 201.926 -166.949 299.384C-188.594 348.117 -201.123 392.072 -203.294 428.377C-205.466 464.687 -197.277 493.23 -177.63 511.311C-157.984 529.392 -128.585 535.443 -92.0785 530.732C-55.5778 526.021 -12.0852 510.563 35.5849 485.782C130.919 436.224 242.809 349.46 348.635 237.225C454.46 124.991 534.139 8.5818 577.427 -88.8766C599.072 -137.609 611.6 -181.565 613.772 -217.869C615.944 -254.179 607.753 -282.722 588.106 -300.803Z" stroke="#ED5A00" stroke-width="1.48538"/>
<path d="M582.013 -306.295C561.99 -323.971 532.4 -329.483 495.872 -324.141C459.35 -318.799 416.007 -302.618 368.639 -277.072C273.909 -225.982 163.234 -137.512 59.0929 -23.7596C-45.0481 89.993 -122.894 207.444 -164.579 305.359C-185.423 354.32 -197.21 398.358 -198.745 434.586C-200.28 470.819 -191.56 499.127 -171.537 516.803C-151.513 534.479 -121.924 539.99 -85.3957 534.647C-48.8737 529.305 -5.52976 513.125 41.8381 487.579C136.568 436.489 247.242 348.018 351.383 234.266C455.524 120.513 533.371 3.06312 575.056 -94.8525C595.9 -143.814 607.686 -187.852 609.221 -224.079C610.756 -260.313 602.036 -288.619 582.013 -306.295Z" stroke="#ED5A00" stroke-width="1.48538"/>
<path d="M575.804 -311.663C555.41 -328.928 525.638 -333.897 489.1 -327.924C452.568 -321.953 409.386 -305.057 362.335 -278.752C268.238 -226.147 158.812 -135.998 56.387 -20.7622C-46.038 94.4737 -122.027 212.93 -162.097 311.273C-182.134 360.448 -193.173 404.556 -194.071 440.695C-194.969 476.841 -185.723 504.903 -165.329 522.169C-144.935 539.434 -115.163 544.404 -78.6246 538.431C-42.0924 532.459 1.08937 515.563 48.1408 489.259C142.237 436.653 251.663 346.504 354.088 231.268C456.513 116.032 532.502 -2.42412 572.573 -100.767C592.609 -149.942 603.649 -194.049 604.546 -230.189C605.444 -266.334 596.199 -294.397 575.804 -311.663Z" stroke="#ED5A00" stroke-width="1.48538"/>
<path d="M569.484 -316.901C548.725 -333.751 518.779 -338.178 482.242 -331.577C445.71 -324.977 402.704 -307.369 355.984 -280.315C262.549 -226.21 154.406 -134.409 53.7282 -17.7246C-46.9494 98.9595 -121.058 218.385 -159.502 317.126C-178.725 366.499 -189.016 410.662 -189.276 446.703C-189.536 482.75 -179.766 510.56 -159.007 527.41C-138.248 544.259 -108.303 548.686 -71.7658 542.085C-35.2345 535.485 7.77202 517.877 54.4926 490.823C147.927 436.718 256.07 344.917 356.748 228.233C457.425 111.548 531.535 -7.87783 569.978 -106.618C589.202 -155.992 599.492 -200.154 599.752 -236.195C600.012 -272.241 590.243 -300.051 569.484 -316.901Z" stroke="#ED5A00" stroke-width="1.48538"/>
<path d="M563.053 -322.013C541.935 -338.442 511.825 -342.324 475.3 -335.097C438.781 -327.871 395.963 -309.558 349.587 -281.762C256.843 -226.174 150.015 -132.748 51.1155 -14.6513C-47.7843 103.445 -119.991 223.805 -156.796 322.912C-175.199 372.469 -184.737 416.675 -184.359 452.605C-183.982 488.542 -173.692 516.092 -152.575 532.521C-131.457 548.949 -101.346 552.831 -64.8214 545.604C-28.3022 538.378 14.5153 520.064 60.8908 492.268C153.635 436.68 260.462 343.255 359.362 225.158C458.262 107.062 530.469 -13.298 567.274 -112.406C585.677 -161.963 595.216 -206.168 594.838 -242.098C594.461 -278.035 584.17 -305.584 563.053 -322.013Z" stroke="#ED5A00" stroke-width="1.48538"/>
<path d="M556.51 -326.994C535.04 -342.997 504.774 -346.333 468.273 -338.482C431.777 -330.632 389.161 -311.618 343.145 -283.089C251.119 -226.035 145.64 -131.015 48.5478 -11.5417C-48.5443 107.932 -118.826 229.189 -153.981 328.634C-171.56 378.36 -180.342 422.592 -179.327 458.402C-178.312 494.218 -167.504 521.498 -146.035 537.501C-124.565 553.504 -94.2994 556.84 -57.7979 548.989C-21.302 541.139 21.3144 522.126 67.3305 493.597C159.357 436.543 264.836 341.522 361.928 222.048C459.02 102.574 529.301 -18.6814 564.457 -118.126C582.035 -167.852 590.817 -212.085 589.802 -247.895C588.787 -283.711 577.979 -310.991 556.51 -326.994Z" stroke="#ED5A00" stroke-width="1.48538"/>
<path d="M549.861 -331.841C528.046 -347.414 497.633 -350.203 461.166 -341.731C424.705 -333.259 382.303 -313.551 336.66 -284.298C245.381 -225.795 141.282 -129.208 46.0275 -8.39421C-49.2268 112.419 -117.562 234.535 -151.056 334.287C-167.805 384.166 -175.829 428.414 -174.177 464.092C-172.524 499.776 -161.203 526.779 -139.388 542.352C-117.572 557.924 -87.1597 560.712 -50.6926 552.24C-14.231 543.768 28.1711 524.061 73.8139 494.807C165.093 436.305 269.191 339.718 364.445 218.904C459.7 98.0902 528.036 -24.0257 561.531 -123.777C578.279 -173.656 586.302 -217.905 584.65 -253.583C582.998 -289.267 571.676 -316.269 549.861 -331.841Z" stroke="#ED5A00" stroke-width="1.48538"/>
<path d="M543.11 -336.558C520.956 -351.696 490.406 -353.937 453.984 -344.845C417.568 -335.755 375.394 -315.359 330.138 -285.391C239.633 -225.457 136.947 -127.332 43.5591 -5.21461C-49.8287 116.903 -116.198 239.841 -148.022 339.868C-163.935 389.886 -171.197 434.135 -168.908 469.671C-166.619 505.212 -154.786 531.929 -132.632 547.066C-110.478 562.203 -79.9281 564.444 -43.5068 555.353C-7.0907 546.262 35.0836 525.867 80.3391 495.898C170.844 435.964 273.53 337.84 366.918 215.723C460.306 93.6052 526.675 -29.3332 558.499 -129.361C574.412 -179.379 581.675 -223.628 579.386 -259.164C577.097 -294.705 565.264 -321.421 543.11 -336.558Z" stroke="#ED5A00" stroke-width="1.48538"/>
<path d="M536.253 -341.14C513.766 -355.837 483.088 -357.53 446.723 -347.822C410.364 -338.116 368.43 -317.037 323.576 -286.362C233.873 -225.016 132.629 -125.385 41.1364 -2.00084C-50.3564 121.383 -114.738 245.106 -144.881 345.38C-159.954 395.52 -166.454 439.757 -163.529 475.14C-160.604 510.527 -148.265 536.951 -125.778 551.648C-103.291 566.345 -72.613 568.037 -36.2483 558.329C0.111254 548.623 42.0455 527.545 86.9 496.87C176.603 435.523 277.845 335.892 369.338 212.509C460.831 89.125 525.213 -34.5984 555.357 -134.872C570.43 -185.013 576.929 -229.25 574.004 -264.633C571.079 -300.02 558.74 -326.442 536.253 -341.14Z" stroke="#ED5A00" stroke-width="1.48538"/>
<path d="M529.296 -345.584C506.483 -359.837 475.687 -360.981 439.39 -350.66C403.098 -340.341 361.417 -318.586 316.978 -287.214C228.104 -224.474 128.335 -123.366 38.7649 1.24619C-50.8051 125.858 -113.179 250.329 -141.633 350.819C-155.861 401.066 -161.597 445.279 -158.037 480.497C-154.476 515.72 -141.634 541.841 -118.821 556.094C-96.0082 570.347 -65.2113 571.49 -28.9145 561.169C7.37735 550.85 49.0581 529.095 93.4978 497.723C182.371 434.983 282.14 333.875 371.71 209.262C461.28 84.6502 523.655 -39.8201 552.109 -140.309C566.336 -190.557 572.072 -234.769 568.512 -269.987C564.952 -305.21 552.108 -331.331 529.296 -345.584Z" stroke="#ED5A00" stroke-width="1.48538"/>
<path d="M522.241 -349.893C499.11 -363.697 468.204 -364.291 431.986 -353.36C395.773 -342.431 354.358 -320.007 310.347 -287.948C222.329 -223.832 124.065 -121.279 36.4448 4.52375C-51.1749 130.327 -111.523 255.507 -138.279 356.181C-151.657 406.521 -156.626 450.694 -152.432 485.738C-148.238 520.785 -134.895 546.596 -111.764 560.401C-88.6321 574.205 -57.7264 574.799 -21.5084 563.868C14.7047 552.939 56.1193 530.515 100.131 498.456C188.148 434.341 286.412 331.787 374.032 205.984C461.652 80.1808 522.001 -44.9993 548.756 -145.673C562.135 -196.013 567.104 -240.186 562.91 -275.23C558.716 -310.277 545.373 -336.088 522.241 -349.893Z" stroke="#ED5A00" stroke-width="1.48538"/>
<path d="M515.089 -354.062C491.645 -367.413 460.64 -367.458 424.512 -355.92C388.388 -344.384 347.252 -321.298 303.683 -288.561C216.548 -223.09 119.818 -119.123 34.1754 7.83254C-51.4675 134.788 -109.772 260.64 -134.821 361.468C-147.346 411.885 -151.547 456.005 -146.72 490.862C-141.893 525.724 -128.055 551.219 -104.612 564.57C-81.168 577.921 -50.1618 577.966 -14.0337 566.428C22.0895 554.891 63.2253 531.806 106.795 499.069C193.929 433.599 290.659 329.63 376.302 202.675C461.944 75.7193 520.249 -50.1319 545.298 -150.96C557.824 -201.377 562.025 -245.497 557.198 -280.355C552.371 -315.217 538.532 -340.71 515.089 -354.062Z" stroke="#ED5A00" stroke-width="1.48538"/>
<path d="M507.841 -358.091C484.092 -370.986 452.996 -370.48 416.969 -358.339C380.947 -346.2 340.101 -322.46 296.987 -289.055C210.762 -222.25 115.597 -116.898 31.9571 11.1714C-51.6827 139.24 -107.926 265.724 -131.261 366.675C-142.929 417.154 -146.36 461.209 -140.902 495.87C-135.444 530.536 -121.115 555.704 -97.3662 568.598C-73.6177 581.493 -42.5215 580.988 -6.49433 568.847C29.5283 556.707 70.3738 532.966 113.489 499.561C199.713 432.756 294.878 327.405 378.518 199.336C462.158 71.2668 518.401 -55.2177 541.736 -156.169C553.404 -206.647 556.835 -250.702 551.377 -285.363C545.918 -320.028 531.589 -345.197 507.841 -358.091Z" stroke="#ED5A00" stroke-width="1.48538"/>
<path d="M500.503 -361.978C476.457 -374.412 445.28 -373.358 409.365 -360.617C373.454 -347.878 332.912 -323.49 290.265 -289.427C204.977 -221.307 111.404 -114.605 29.7929 14.5388C-51.8184 143.682 -105.982 270.761 -127.596 371.805C-138.404 422.329 -141.064 466.305 -134.977 500.759C-128.889 535.218 -114.073 560.054 -90.0262 572.487C-65.9799 584.921 -34.8021 583.866 1.11293 571.125C37.0237 558.386 77.5652 533.997 120.212 499.935C205.5 431.815 299.072 325.112 380.684 195.969C462.295 66.8254 516.459 -60.2533 538.073 -161.297C548.881 -211.822 551.542 -255.797 545.454 -290.251C539.366 -324.71 524.55 -349.545 500.503 -361.978Z" stroke="#ED5A00" stroke-width="1.48538"/>
<path d="M493.073 -365.724C468.736 -377.693 437.487 -376.089 401.695 -362.753C365.907 -349.419 325.681 -324.389 283.515 -289.68C199.189 -220.266 107.238 -112.245 27.6798 17.9341C-51.8782 148.113 -103.946 275.747 -123.832 376.852C-133.776 427.408 -135.665 471.29 -128.95 505.527C-122.234 539.768 -106.936 564.265 -82.599 576.233C-58.2621 588.202 -27.0131 586.597 8.77902 573.261C44.5673 559.926 84.7936 534.898 126.959 500.188C211.285 430.774 303.235 322.753 382.794 192.574C462.352 62.3954 514.421 -65.2389 534.307 -166.344C544.251 -216.9 546.139 -260.783 539.424 -295.02C532.708 -329.26 517.41 -353.756 493.073 -365.724Z" stroke="#ED5A00" stroke-width="1.48538"/>
<path d="M485.557 -369.327C460.937 -380.827 429.626 -378.674 393.968 -364.746C358.313 -350.82 318.416 -325.158 276.744 -289.812C193.406 -219.125 103.104 -109.819 25.6233 21.3551C-51.8573 152.529 -101.813 280.68 -119.966 381.817C-129.043 432.388 -130.16 476.164 -122.819 510.173C-115.478 544.186 -99.7017 568.334 -75.0817 579.834C-50.4614 591.334 -19.1497 589.182 16.5086 575.254C52.1632 561.328 92.061 535.666 133.733 500.32C217.071 429.632 307.372 320.327 384.852 189.152C462.333 57.9778 512.29 -70.1728 530.442 -171.309C539.519 -221.88 540.637 -265.657 533.296 -299.666C525.954 -333.679 510.178 -357.827 485.557 -369.327Z" stroke="#ED5A00" stroke-width="1.48538"/>
<path d="M477.955 -372.784C453.059 -383.813 421.695 -381.112 386.182 -366.597C350.672 -352.084 311.114 -325.796 269.949 -289.825C187.624 -217.886 98.9995 -107.328 23.6202 24.8023C-51.759 156.932 -99.5887 285.56 -116.002 386.696C-124.209 437.267 -124.555 480.925 -116.59 514.696C-108.626 548.47 -92.3762 572.263 -67.4803 583.292C-42.5842 594.32 -11.2199 591.618 24.2937 577.104C59.8039 562.591 99.3622 536.303 140.527 500.332C222.852 428.393 311.476 317.835 386.855 185.705C462.234 53.5752 510.065 -75.0532 526.478 -176.189C534.686 -226.761 535.03 -270.418 527.066 -304.189C519.101 -337.964 502.851 -361.756 477.955 -372.784Z" stroke="#ED5A00" stroke-width="1.48538"/>
<path d="M470.271 -376.096C445.106 -386.648 413.699 -383.4 378.341 -368.303C342.986 -353.207 303.781 -326.302 263.135 -289.716C181.849 -216.547 94.9282 -104.771 21.6729 28.274C-51.5823 161.319 -97.271 290.386 -111.94 391.492C-119.275 442.047 -118.848 485.572 -110.263 519.095C-101.677 552.62 -84.9596 576.051 -59.7952 586.604C-34.6307 597.157 -3.22337 593.908 32.1347 578.81C67.4896 563.714 106.695 536.81 147.341 500.224C228.628 427.055 315.548 315.279 388.803 182.233C462.058 49.1881 507.748 -79.8785 522.417 -180.984C529.751 -231.54 529.324 -275.064 520.739 -308.587C512.153 -342.113 495.435 -365.543 470.271 -376.096Z" stroke="#ED5A00" stroke-width="1.48538"/>
<path d="M462.506 -379.261C437.081 -389.335 405.64 -385.54 370.449 -369.864C335.26 -354.19 296.418 -326.677 256.304 -289.487C176.08 -215.112 90.8904 -102.151 19.7816 31.7696C-51.3271 165.69 -94.8609 295.155 -107.781 396.199C-114.241 446.724 -113.042 490.103 -103.838 523.367C-94.634 556.634 -77.4533 579.694 -52.028 589.768C-26.6027 599.843 4.83772 596.048 40.0294 580.372C75.2183 564.698 114.06 537.185 154.174 499.995C234.398 425.619 319.586 312.659 390.695 178.739C461.804 44.8186 505.339 -84.6475 518.259 -185.691C524.72 -236.216 523.52 -279.595 514.317 -312.859C505.112 -346.126 487.931 -369.186 462.506 -379.261Z" stroke="#ED5A00" stroke-width="1.48538"/>
<path d="M454.661 -382.278C428.982 -391.87 397.518 -387.53 362.503 -371.281C327.491 -355.033 289.026 -326.92 249.456 -289.137C170.319 -213.577 86.8858 -99.467 17.945 35.2872C-50.9956 170.041 -92.3605 299.867 -103.528 400.818C-109.112 451.296 -107.142 494.516 -97.3225 527.512C-87.5027 560.509 -69.8641 583.194 -44.1858 592.786C-18.5074 602.379 12.9579 598.039 47.9727 581.79C82.9848 565.542 121.45 537.428 161.02 499.645C240.157 424.085 323.589 309.975 392.53 175.221C461.471 40.4672 502.837 -89.3585 514.004 -190.31C519.588 -240.788 517.617 -284.007 507.798 -317.003C497.978 -350.001 480.339 -372.685 454.661 -382.278Z" stroke="#ED5A00" stroke-width="1.48538"/>
<path d="M446.742 -385.147C420.818 -394.255 389.339 -389.371 354.512 -372.553C319.688 -355.737 281.61 -327.032 242.595 -288.669C164.57 -211.947 82.9188 -96.7214 16.1671 38.8257C-50.5844 174.373 -89.769 304.518 -99.1803 405.346C-103.886 455.763 -101.144 498.81 -90.712 531.527C-80.2796 564.246 -62.1887 586.547 -36.2648 595.655C-10.341 604.763 21.1383 599.878 55.9652 583.06C90.7899 566.244 128.868 537.539 167.883 499.176C245.907 422.455 327.557 307.229 394.309 171.682C461.061 36.1349 500.246 -94.0109 509.658 -194.839C514.364 -245.256 511.621 -288.303 501.189 -321.02C490.757 -353.738 472.666 -376.039 446.742 -385.147Z" stroke="#ED5A00" stroke-width="1.48538"/>
<path d="M438.748 -387.866C412.587 -396.487 381.103 -391.059 346.474 -373.678C311.848 -356.299 274.169 -327.01 235.722 -288.079C158.833 -210.219 78.9891 -93.9138 14.4469 42.3848C-50.0952 178.683 -87.0871 309.109 -94.7396 409.783C-98.566 460.123 -95.0537 502.985 -84.0127 535.413C-72.9709 567.843 -54.4329 589.754 -28.2715 598.374C-2.1101 606.995 29.3739 601.567 64.0023 584.187C98.6289 566.807 136.307 537.518 174.754 498.586C251.644 420.726 331.488 304.421 396.03 168.122C460.572 31.8239 497.564 -98.6019 505.217 -199.276C509.043 -249.616 505.53 -292.477 494.489 -324.905C483.448 -357.335 464.91 -379.246 438.748 -387.866Z" stroke="#ED5A00" stroke-width="1.48538"/>
<path d="M430.683 -390.435C404.292 -398.565 372.812 -392.597 338.393 -374.659C303.975 -356.721 266.707 -326.858 228.84 -287.368C153.109 -208.395 75.096 -91.0449 12.7829 45.9637C-49.5301 182.972 -84.3179 313.639 -90.2091 414.128C-93.1548 464.376 -88.8731 507.039 -77.2261 539.168C-65.5784 571.299 -46.5986 592.813 -20.2073 600.944C6.18384 609.074 37.6629 603.104 72.0825 585.166C106.5 567.228 143.768 537.366 181.635 497.877C257.366 418.903 335.379 301.553 397.692 164.545C460.005 27.5359 494.793 -103.131 500.684 -203.62C503.63 -253.868 499.348 -296.531 487.701 -328.66C476.054 -360.791 457.074 -382.304 430.683 -390.435Z" stroke="#ED5A00" stroke-width="1.48538"/>
<path d="M422.55 -392.853C395.937 -400.491 364.472 -393.983 330.272 -375.492C296.073 -357.002 259.228 -326.574 221.952 -286.54C147.403 -206.476 71.2449 -88.1171 11.1799 49.5599C-48.8852 187.237 -81.4586 318.104 -85.5868 418.379C-87.6509 468.519 -82.6013 510.97 -70.3518 542.79C-58.1017 574.612 -38.6865 595.724 -12.0735 603.362C14.5396 610.999 46.0048 604.491 80.2053 585.999C114.404 567.509 151.249 537.082 188.526 497.048C263.074 416.984 339.232 298.625 399.297 160.948C459.362 23.2708 491.936 -107.597 496.064 -207.871C498.128 -258.011 493.079 -300.462 480.829 -332.283C468.579 -364.105 449.163 -385.215 422.55 -392.853Z" stroke="#ED5A00" stroke-width="1.48538"/>
<path d="M414.35 -395.119C387.523 -402.262 356.082 -395.216 322.111 -376.178C288.142 -357.141 251.731 -326.157 215.057 -285.59C141.712 -204.46 67.4319 -85.1292 9.63314 53.1742C-48.1655 191.477 -78.5137 322.506 -80.8777 422.534C-82.0596 472.551 -76.2438 514.778 -63.3957 546.28C-50.5471 577.784 -30.7017 598.485 -3.87501 605.628C22.9518 612.771 54.3934 605.724 88.364 586.687C122.333 567.649 158.745 536.667 195.419 496.1C268.764 414.97 343.043 295.638 400.842 157.335C458.64 19.0318 488.99 -111.996 491.354 -212.025C492.536 -262.042 486.719 -304.269 473.871 -335.772C461.022 -367.275 441.177 -387.976 414.35 -395.119Z" stroke="#ED5A00" stroke-width="1.48538"/>
<path d="M406.087 -397.233C379.055 -403.879 347.647 -396.298 313.917 -376.719C280.187 -357.141 244.22 -325.61 208.16 -284.523C136.042 -202.352 63.6631 -82.0849 8.14831 56.8024C-47.3665 195.69 -75.4812 326.84 -76.0802 426.592C-76.3797 476.471 -69.7995 518.46 -56.3565 549.635C-42.9131 580.811 -22.6435 601.095 4.38885 607.741C31.4212 614.386 62.8291 606.805 96.5594 587.227C130.289 567.648 166.257 536.118 202.317 495.031C274.435 412.86 346.813 292.592 402.328 153.704C457.843 14.817 485.958 -116.332 486.557 -216.084C486.857 -265.963 480.276 -307.953 466.833 -339.127C453.389 -370.303 433.12 -390.588 406.087 -397.233Z" stroke="#ED5A00" stroke-width="1.48538"/>
<path d="M397.763 -399.194C370.533 -405.34 339.168 -397.225 305.688 -377.111C272.209 -356.998 236.697 -324.932 201.261 -283.336C130.392 -200.149 59.9356 -78.9819 6.72168 60.4476C-46.4922 199.877 -72.3642 331.107 -71.1981 430.552C-70.615 480.278 -63.2721 522.017 -49.2384 552.855C-35.2044 583.693 -14.5172 603.556 12.7126 609.702C39.9425 615.848 71.3082 607.734 104.788 587.62C138.268 567.507 173.78 535.44 209.216 493.844C280.084 410.657 350.54 289.49 403.754 150.061C456.968 10.6315 482.841 -120.599 481.675 -220.044C481.092 -269.77 473.748 -311.509 459.715 -342.346C445.681 -373.185 424.993 -393.048 397.763 -399.194Z" stroke="#ED5A00" stroke-width="1.48538"/>
<path d="M389.381 -401.001C361.962 -406.645 330.649 -398 297.43 -377.358C264.211 -356.715 229.165 -324.122 194.364 -282.031C124.766 -197.854 56.2542 -75.8235 5.35727 64.1054C-45.5395 204.034 -69.1617 335.305 -66.2309 434.413C-64.7654 483.97 -56.6618 525.447 -42.0416 555.938C-27.4213 586.429 -6.32232 605.864 21.0968 611.509C48.5158 617.153 79.8285 608.508 113.048 587.866C146.267 567.223 181.312 534.629 216.113 492.538C285.711 408.361 354.223 286.331 405.12 146.403C456.016 6.47388 479.639 -124.798 476.708 -223.906C475.243 -273.463 467.139 -314.939 452.519 -345.43C437.899 -375.921 416.8 -395.356 389.381 -401.001Z" stroke="#ED5A00" stroke-width="1.48538"/>
<path d="M380.942 -402.653C353.342 -407.795 322.092 -398.622 289.143 -377.456C256.194 -356.291 221.626 -323.181 187.471 -280.608C119.164 -195.466 52.617 -72.61 4.05261 67.7755C-44.5117 208.161 -65.8764 339.433 -61.1817 438.175C-58.8343 487.548 -49.9727 528.749 -34.7706 558.884C-19.5685 589.019 1.93556 608.02 29.5356 613.162C57.1356 618.303 88.3861 609.13 121.335 587.964C154.284 566.799 188.851 533.688 223.006 491.115C291.313 405.973 357.86 283.117 406.424 142.732C454.989 2.34621 476.353 -128.926 471.659 -227.667C469.311 -277.04 460.45 -318.241 445.248 -348.376C430.046 -378.511 408.542 -397.512 380.942 -402.653Z" stroke="#ED5A00" stroke-width="1.48538"/>
<path d="M372.45 -404.152C344.678 -408.788 313.498 -399.09 280.83 -377.409C248.162 -355.727 214.082 -322.109 180.583 -279.066C113.589 -192.985 49.0269 -69.3421 2.80983 71.4574C-43.4072 212.257 -62.5075 343.49 -56.0505 441.834C-52.8219 491.008 -43.2062 531.921 -27.4269 561.691C-11.6476 591.461 10.2557 610.023 38.0284 614.66C65.8011 619.296 96.9801 609.597 129.648 587.915C162.316 566.234 196.397 532.616 229.896 489.573C296.89 403.492 361.451 279.849 407.668 139.049C453.885 -1.74999 472.986 -132.983 466.53 -231.327C463.301 -280.501 453.684 -321.415 437.905 -351.185C422.126 -380.954 400.223 -399.515 372.45 -404.152Z" stroke="#ED5A00" stroke-width="1.48538"/>
<path d="M363.904 -405.494C335.967 -409.624 304.869 -399.403 272.492 -377.213C240.114 -355.021 206.531 -320.907 173.699 -277.408C108.038 -190.414 45.4809 -66.0197 1.62527 75.1508C-42.2303 216.321 -59.0612 347.475 -50.8439 445.392C-46.735 494.352 -36.3666 534.965 -20.0147 564.361C-3.66303 593.757 18.6317 611.872 46.5686 616.002C74.5054 620.133 105.603 609.911 137.981 587.72C170.359 565.529 203.941 531.415 236.774 487.915C302.435 400.922 364.991 276.528 408.847 135.358C452.703 -5.81267 469.534 -136.967 461.316 -234.884C457.208 -283.845 446.839 -324.457 430.487 -353.853C414.136 -383.249 391.841 -401.363 363.904 -405.494Z" stroke="#ED5A00" stroke-width="1.48538"/>
<path d="M355.315 -406.681C327.222 -410.304 296.215 -399.564 264.138 -376.87C232.061 -354.176 198.986 -319.576 166.83 -275.634C102.522 -187.753 41.9883 -62.6468 0.507333 78.8519C-40.9735 220.35 -55.5288 351.386 -45.5536 448.845C-40.5657 497.577 -29.4482 537.877 -12.5288 566.89C4.39031 595.902 27.0703 613.566 55.1628 617.189C83.2553 620.812 114.262 610.071 146.339 587.377C178.417 564.683 211.492 530.082 243.647 486.14C307.956 398.26 368.488 273.154 409.969 131.656C451.45 -9.84301 466.006 -140.879 456.031 -238.338C451.043 -287.071 439.926 -327.37 423.007 -356.383C406.087 -385.395 383.407 -403.058 355.315 -406.681Z" stroke="#ED5A00" stroke-width="1.48538"/>
<path d="M346.676 -407.713C318.437 -410.827 287.529 -399.57 255.762 -376.38C223.995 -353.19 191.439 -318.114 159.969 -273.743C97.0335 -185.003 38.5423 -59.2222 -0.551243 82.5614C-39.6447 224.345 -51.9211 355.221 -40.1911 452.194C-34.3258 500.682 -22.4628 540.656 -4.98116 569.277C12.5002 597.897 35.5593 615.105 63.7991 618.219C92.0388 621.333 122.946 610.076 154.713 586.887C186.48 563.696 219.037 528.62 250.506 484.249C313.442 395.51 371.932 269.729 411.025 127.946C450.119 -13.838 462.396 -144.715 450.666 -241.688C444.801 -290.176 432.938 -330.15 415.457 -358.771C397.975 -387.391 374.916 -404.599 346.676 -407.713Z" stroke="#ED5A00" stroke-width="1.48538"/>
<path d="M337.995 -408.587C309.617 -411.191 278.819 -399.422 247.372 -375.743C215.924 -352.064 183.896 -316.523 153.122 -271.735C91.5779 -182.163 35.1474 -55.7464 -1.54691 86.2787C-38.2412 228.304 -48.2348 358.981 -34.7537 455.438C-28.0128 503.669 -15.4079 543.306 2.6309 571.526C20.6691 599.745 44.0999 616.491 72.4782 619.095C100.857 621.699 131.655 609.93 163.101 586.252C194.549 562.572 226.577 527.031 257.351 482.243C318.895 392.671 375.325 266.254 412.019 124.229C448.714 -17.7957 458.708 -148.473 445.227 -244.93C438.486 -293.16 425.881 -332.798 407.842 -361.018C389.804 -389.237 366.373 -405.983 337.995 -408.587Z" stroke="#ED5A00" stroke-width="1.48538"/>
<path d="M329.276 -409.305C300.768 -411.398 270.088 -399.119 238.971 -374.96C207.853 -350.799 176.363 -314.804 146.294 -269.613C86.1603 -179.236 31.8073 -52.2223 -2.47664 90.0014C-36.7605 232.225 -44.4681 362.664 -29.24 458.574C-21.6255 506.532 -8.28304 545.82 10.3072 573.631C28.8968 601.441 52.6924 617.72 81.2008 619.813C109.709 621.906 140.388 609.627 171.505 585.468C202.624 561.307 234.115 525.311 264.183 480.121C324.317 389.744 378.669 262.73 412.953 120.507C447.237 -21.7171 454.945 -152.156 439.717 -248.067C432.103 -296.025 418.759 -335.312 400.169 -363.123C381.579 -390.932 357.784 -407.211 329.276 -409.305Z" stroke="#ED5A00" stroke-width="1.48538"/>
<path d="M320.516 -409.866C291.887 -411.448 261.336 -398.664 230.558 -374.03C199.778 -349.394 168.835 -312.956 139.481 -267.377C80.7754 -176.223 28.5171 -48.6502 -3.34599 93.7284C-35.2091 236.107 -40.6292 366.268 -23.6587 461.604C-15.173 509.274 -1.09565 548.2 18.0405 575.593C37.1757 602.985 61.3281 618.792 89.9578 620.374C118.588 621.956 149.138 609.172 179.917 584.538C210.696 559.903 241.639 523.464 270.993 477.885C329.699 386.731 381.957 259.158 413.82 116.779C445.683 -25.5999 451.103 -155.76 434.133 -251.096C425.647 -298.766 411.57 -337.692 392.434 -365.085C373.298 -392.477 349.146 -408.284 320.516 -409.866Z" stroke="#ED5A00" stroke-width="1.48538"/>
<path d="M311.725 -410.271C282.982 -411.341 252.569 -398.056 222.14 -372.955C191.708 -347.853 161.321 -310.982 132.691 -265.028C75.4318 -173.124 25.2833 -45.0316 -4.14931 97.4588C-33.5819 239.949 -36.7119 369.792 -18.0042 464.524C-8.64997 511.892 6.15727 550.445 25.8335 577.412C45.5086 604.378 70.0105 619.708 98.7529 620.778C127.495 621.848 157.908 608.562 188.338 583.461C218.77 558.359 249.156 521.488 277.787 475.534C335.046 383.63 385.195 255.538 414.627 113.047C444.06 -29.4432 447.19 -159.286 428.482 -254.018C419.128 -301.386 404.321 -339.939 384.644 -366.906C364.969 -393.872 340.467 -409.201 311.725 -410.271Z" stroke="#ED5A00" stroke-width="1.48538"/>
<path d="M302.898 -410.519C274.051 -411.076 243.785 -397.293 213.713 -371.733C183.639 -346.172 153.819 -308.88 125.921 -262.566C70.1255 -169.94 22.101 -41.366 -4.8921 101.193C-31.8852 243.751 -32.7235 373.236 -12.2843 467.335C-2.06427 514.387 13.4673 552.555 33.6776 579.088C53.8865 605.619 78.7313 620.468 107.578 621.026C136.424 621.583 166.69 607.799 196.762 582.24C226.837 556.678 256.657 519.387 284.556 473.072C340.351 380.446 388.374 251.873 415.367 109.314C442.36 -33.2444 443.2 -162.73 422.761 -256.829C412.541 -303.881 397.008 -342.049 376.798 -368.582C356.589 -395.113 331.744 -409.961 302.898 -410.519Z" stroke="#ED5A00" stroke-width="1.48538"/>
<path d="M294.043 -410.607C265.102 -410.652 234.992 -396.376 205.286 -370.365C175.579 -344.352 146.333 -306.651 119.175 -259.989C64.8605 -166.67 18.9767 -37.6549 -5.56876 104.929C-30.1142 247.512 -28.6623 376.601 -6.49789 470.038C4.58476 516.759 20.8381 554.53 41.5762 580.62C62.3129 606.709 87.4927 621.072 116.434 621.117C145.375 621.162 175.486 606.884 205.191 580.873C234.899 554.861 264.144 517.16 291.302 470.499C345.616 377.179 391.5 248.164 416.045 105.581C440.59 -37.0029 439.139 -166.091 416.974 -259.529C405.891 -306.249 389.639 -344.021 368.901 -370.112C348.165 -396.201 322.984 -410.563 294.043 -410.607Z" stroke="#ED5A00" stroke-width="1.48538"/>
<path d="M285.159 -410.54C256.132 -410.072 226.187 -395.307 196.857 -368.853C167.525 -342.396 138.864 -304.297 112.454 -257.303C59.6376 -163.318 15.9069 -33.9013 -6.18339 108.664C-28.2737 251.229 -24.5307 379.881 -0.647913 472.628C11.2939 519.004 28.2623 556.367 49.522 582.008C70.7801 607.646 96.2875 621.519 125.315 621.051C154.343 620.583 184.288 605.816 213.618 579.362C242.95 552.906 271.611 514.807 298.02 467.813C350.837 373.828 394.567 244.411 416.657 101.846C438.747 -40.7191 435.005 -169.371 411.123 -262.118C399.181 -308.494 382.213 -345.858 360.953 -371.498C339.695 -397.137 314.187 -411.008 285.159 -410.54Z" stroke="#ED5A00" stroke-width="1.48538"/>
<path d="M276.254 -410.317C247.149 -409.336 217.378 -394.085 188.433 -367.196C159.486 -340.305 131.417 -301.819 105.765 -254.506C54.4614 -159.886 12.8985 -30.1061 -6.73003 112.397C-26.3585 254.9 -20.3268 383.076 5.26708 475.106C18.0645 521.122 35.7432 558.067 57.518 583.249C79.291 608.429 105.118 621.806 134.223 620.825C163.328 619.845 193.099 604.594 222.044 577.705C250.991 550.813 279.06 512.327 304.712 465.015C356.016 370.394 397.579 240.614 417.207 98.111C436.835 -44.3918 430.804 -172.568 405.21 -264.597C392.412 -310.614 374.734 -347.558 352.959 -372.74C331.186 -397.921 305.359 -411.298 276.254 -410.317Z" stroke="#ED5A00" stroke-width="1.48538"/>
<path d="M267.326 -409.936C238.152 -408.442 208.565 -392.712 180.013 -365.396C151.459 -338.077 123.993 -299.216 99.105 -251.6C49.3308 -156.372 9.94638 -26.2683 -7.21435 116.129C-24.375 258.527 -16.0546 386.188 11.2426 477.471C24.8917 523.114 43.2743 559.628 65.5575 584.345C87.8388 609.059 113.978 621.938 143.152 620.445C172.326 618.951 201.912 603.22 230.464 575.904C259.018 548.585 286.485 509.724 311.373 462.108C361.147 366.88 400.531 236.777 417.691 94.3798C434.852 -48.0178 426.533 -175.68 399.235 -266.963C385.586 -312.606 367.203 -349.12 344.92 -373.837C322.638 -398.551 296.5 -411.429 267.326 -409.936Z" stroke="#ED5A00" stroke-width="1.48538"/>
<path d="M258.379 -409.398C229.145 -407.392 199.751 -391.186 171.602 -363.451C143.449 -335.713 116.592 -296.49 92.476 -248.585C44.2462 -152.778 7.05416 -22.3913 -7.63356 119.857C-22.3213 262.106 -11.7167 389.215 17.2754 479.724C31.772 524.98 50.8553 561.051 73.6401 585.294C96.4229 609.535 122.866 621.912 152.099 619.906C181.333 617.901 210.726 601.694 238.876 573.959C267.028 546.221 293.885 506.998 318.001 459.094C366.231 363.287 403.423 232.899 418.111 90.6505C432.799 -51.5981 422.194 -178.706 393.202 -269.215C378.705 -314.471 359.622 -350.543 336.837 -374.786C314.055 -399.027 287.612 -411.403 258.379 -409.398Z" stroke="#ED5A00" stroke-width="1.48538"/>
<path d="M249.414 -408.703C220.13 -406.186 190.937 -389.509 163.198 -361.364C135.457 -333.215 109.218 -293.641 85.8812 -245.461C39.2103 -149.105 4.22063 -18.4747 -7.98968 123.582C-20.2 265.638 -7.31304 392.154 23.3651 481.862C38.7048 526.717 58.4809 562.336 81.7605 586.099C105.038 609.859 131.777 621.728 161.061 619.211C190.345 616.694 219.537 600.018 247.276 571.872C275.018 543.724 301.258 504.15 324.594 455.97C371.265 359.614 406.254 228.983 418.464 86.9262C430.675 -55.13 417.788 -181.646 387.11 -271.353C371.771 -316.208 351.994 -351.828 328.714 -375.59C305.437 -399.351 278.698 -411.22 249.414 -408.703Z" stroke="#ED5A00" stroke-width="1.48538"/>
<path d="M240.438 -407.851C211.112 -404.823 182.13 -387.681 154.81 -359.134C127.488 -330.584 101.874 -290.671 79.3242 -242.232C34.2263 -145.356 1.45097 -14.5206 -8.27818 127.301C-18.0073 269.122 -2.8435 395.007 29.5114 483.886C45.6894 528.326 66.1533 563.481 89.9204 586.756C113.685 610.029 140.712 621.388 170.038 618.36C199.364 615.332 228.346 598.189 255.666 569.642C282.989 541.092 308.602 501.18 331.152 452.74C376.25 355.864 409.025 225.029 418.754 83.2078C428.483 -58.6133 413.32 -184.499 380.965 -273.377C364.787 -317.818 344.323 -352.973 320.556 -376.248C296.791 -399.52 269.764 -410.879 240.438 -407.851Z" stroke="#ED5A00" stroke-width="1.48538"/>
<path d="M231.45 -406.843C202.091 -403.305 173.329 -385.703 146.436 -356.763C119.541 -327.82 94.5615 -287.58 72.8052 -238.895C29.2942 -141.529 -1.25856 -10.5298 -8.50366 131.012C-15.7487 272.555 1.6892 397.771 35.7109 485.794C52.7223 529.806 73.8672 564.488 98.1148 587.268C122.36 610.045 149.666 620.89 179.025 617.352C208.384 613.814 237.147 596.212 264.039 567.272C290.934 538.328 315.914 498.088 337.671 449.404C381.182 352.037 411.733 221.038 418.978 79.4953C426.224 -62.0468 408.786 -187.263 374.765 -275.285C357.753 -319.298 336.608 -353.979 312.361 -376.759C288.116 -399.537 260.809 -410.382 231.45 -406.843Z" stroke="#ED5A00" stroke-width="1.48538"/>
<path d="M222.456 -405.68C193.073 -401.633 164.539 -383.576 138.082 -354.252C111.623 -324.924 87.284 -284.37 66.3278 -235.455C24.4167 -137.628 -3.90315 -6.50431 -8.66199 134.716C-13.4208 275.937 6.2849 400.446 41.963 487.586C59.8026 531.157 81.6224 565.353 106.343 587.631C131.061 609.907 158.638 620.235 188.021 616.188C217.404 612.141 245.939 594.083 272.395 564.759C298.855 535.431 323.194 494.877 344.15 445.962C386.061 348.135 414.38 217.011 419.139 75.7907C423.897 -65.4299 404.193 -189.939 368.515 -277.079C350.675 -320.65 328.855 -354.846 304.135 -377.124C279.417 -399.4 251.839 -409.727 222.456 -405.68Z" stroke="#ED5A00" stroke-width="1.48538"/>
<path d="M213.455 -404.361C184.057 -399.805 155.76 -381.299 129.747 -351.599C103.731 -321.896 80.0411 -281.04 59.8914 -231.91C19.5931 -133.652 -6.48568 -2.44355 -8.7568 138.412C-11.0279 279.268 10.9397 403.032 48.2634 489.262C66.9257 532.379 89.4133 566.08 114.599 587.849C139.782 609.616 167.624 619.424 197.021 614.868C226.419 610.313 254.716 591.807 280.729 562.107C306.745 532.404 330.436 491.548 350.585 442.418C390.884 344.16 416.961 212.951 419.233 72.0957C421.504 -68.7601 399.537 -192.524 362.213 -278.754C343.551 -321.871 321.063 -355.572 295.876 -377.341C270.693 -399.108 242.853 -408.916 213.455 -404.361Z" stroke="#ED5A00" stroke-width="1.48538"/>
<path d="M204.452 -402.885C175.048 -397.823 146.996 -378.874 121.435 -348.808C95.8708 -318.739 72.8371 -277.593 53.4999 -228.262C14.8265 -129.603 -9.00352 1.65008 -8.78631 142.098C-8.56906 282.547 15.6542 405.527 54.612 490.822C74.0915 533.471 97.2401 566.666 122.884 587.92C148.525 609.171 176.62 618.456 206.023 613.395C235.427 608.333 263.479 589.382 289.041 559.317C314.605 529.247 337.639 488.101 356.976 438.771C395.649 340.112 419.478 208.859 419.261 68.411C419.044 -72.0373 394.822 -195.019 355.864 -280.314C336.384 -322.962 313.236 -356.158 287.592 -377.412C261.951 -398.663 233.855 -407.947 204.452 -402.885Z" stroke="#ED5A00" stroke-width="1.48538"/>
<path d="M195.451 -401.257C166.05 -395.69 138.252 -376.302 113.15 -345.879C88.0452 -315.453 65.6745 -274.03 47.1557 -224.514C10.1191 -125.484 -11.4537 5.77352 -8.74832 145.771C-6.04283 285.769 20.4274 407.93 61.0075 492.264C81.298 534.431 105.101 567.11 131.195 587.843C157.285 608.573 185.627 617.331 215.028 611.764C244.429 606.197 272.226 586.809 297.328 556.386C322.433 525.959 344.805 484.537 363.323 435.021C400.36 335.991 421.932 204.733 419.226 64.7353C416.521 -75.2623 390.052 -197.423 349.472 -281.756C329.181 -323.924 305.377 -356.604 279.283 -377.336C253.193 -398.066 224.852 -406.824 195.451 -401.257Z" stroke="#ED5A00" stroke-width="1.48538"/>
<path d="M186.45 -399.472C157.062 -393.402 129.527 -373.582 104.893 -342.812C80.2543 -312.037 58.5524 -270.35 40.8577 -220.663C5.46915 -121.293 -13.84 9.92919 -8.6471 149.434C-3.45422 288.939 25.2548 410.242 67.4448 493.588C88.5403 535.262 112.991 567.416 139.527 587.62C166.059 607.822 194.637 616.052 224.026 609.982C253.415 603.911 280.95 584.09 305.585 553.32C330.223 522.545 351.925 480.858 369.619 431.171C405.008 331.801 424.317 200.579 419.124 61.0742C413.931 -78.4305 385.222 -199.734 343.032 -283.08C321.937 -324.754 297.486 -356.908 270.95 -377.112C244.418 -397.314 215.839 -405.543 186.45 -399.472Z" stroke="#ED5A00" stroke-width="1.48538"/>
<path d="M177.456 -397.535C148.088 -390.962 120.825 -370.717 96.6642 -339.608C72.5004 -308.494 51.4756 -266.555 34.6103 -216.713C0.880571 -117.032 -16.161 14.1145 -8.48228 153.084C-0.803561 292.052 30.1375 412.46 73.9243 494.794C95.8184 535.962 120.908 567.581 147.877 587.251C174.843 606.918 203.651 614.616 233.019 608.044C262.386 601.472 289.65 581.226 313.811 550.117C337.975 519.003 359 477.064 375.865 427.222C409.595 327.541 426.635 196.395 418.957 57.4266C411.278 -81.5424 380.338 -201.951 336.551 -284.285C314.657 -325.453 289.568 -357.072 262.598 -376.742C235.632 -396.41 206.823 -404.107 177.456 -397.535Z" stroke="#ED5A00" stroke-width="1.48538"/>
<path d="M168.471 -395.444C139.133 -388.372 112.149 -367.707 88.4703 -336.268C64.7884 -304.826 44.4455 -262.649 28.4148 -212.667C-3.64594 -112.705 -18.412 18.3259 -8.2499 156.717C1.91222 295.108 35.0734 414.586 80.4438 495.882C103.13 536.531 128.851 567.605 156.247 586.735C183.639 605.862 212.666 613.025 242.004 605.953C271.342 598.881 298.326 578.216 322.005 546.778C345.687 515.335 366.029 473.157 382.06 423.175C414.121 323.214 428.887 192.183 418.725 53.7921C408.563 -84.5991 375.402 -204.077 330.031 -285.373C307.345 -326.022 281.624 -357.096 254.228 -376.225C226.836 -395.353 197.809 -402.516 168.471 -395.444Z" stroke="#ED5A00" stroke-width="1.48538"/>
<path d="M159.497 -393.202C130.198 -385.632 103.502 -364.553 80.3121 -332.795C57.1192 -301.033 37.4659 -258.63 22.2746 -208.523C-8.10738 -108.312 -20.596 22.5638 -7.95361 160.335C4.68883 298.106 40.0622 416.616 87.0025 496.849C110.473 536.967 136.818 567.487 164.631 586.071C192.44 604.652 221.679 611.28 250.978 603.71C280.276 596.141 306.973 575.061 330.162 543.303C353.355 511.541 373.01 469.137 388.201 419.03C418.583 318.819 431.071 187.944 418.428 50.1728C405.786 -87.5982 370.413 -206.108 323.473 -286.342C300.002 -326.46 273.656 -356.979 245.843 -375.563C218.034 -394.144 188.796 -400.771 159.497 -393.202Z" stroke="#ED5A00" stroke-width="1.48538"/>
<path d="M150.539 -390.807C121.288 -382.741 94.8875 -361.255 72.1938 -329.188C49.4968 -297.116 30.5382 -254.499 16.1909 -204.283C-12.503 -103.852 -22.7092 26.8281 -7.59038 163.937C7.5285 301.046 45.1021 418.553 93.5978 497.7C117.846 537.274 144.807 567.229 173.029 585.262C201.247 603.291 230.689 609.381 259.939 601.316C289.19 593.25 315.59 571.764 338.283 539.696C360.98 507.625 379.94 465.008 394.287 414.792C422.981 314.361 433.186 183.681 418.068 46.5715C402.949 -90.5374 365.376 -208.044 316.88 -287.191C292.632 -326.765 265.67 -356.721 237.448 -374.753C209.23 -392.783 179.79 -398.872 150.539 -390.807Z" stroke="#ED5A00" stroke-width="1.48538"/>
<path d="M141.595 -388.262C112.401 -379.703 86.3053 -357.816 64.1146 -325.449C41.9207 -293.077 23.6621 -250.261 10.1632 -199.95C-16.8341 -99.3315 -24.7545 31.1144 -7.1638 167.52C10.4269 303.925 50.189 420.393 100.225 498.429C125.244 537.447 152.813 566.829 181.435 584.304C210.054 601.777 239.688 607.327 268.882 598.769C298.075 590.211 324.171 568.323 346.362 535.955C368.556 503.583 386.814 460.767 400.313 410.457C427.311 309.838 435.231 179.392 417.64 42.9866C400.05 -93.4187 360.287 -209.886 310.251 -287.922C285.232 -326.941 257.663 -356.323 229.041 -373.798C200.423 -391.271 170.789 -396.82 141.595 -388.262Z" stroke="#ED5A00" stroke-width="1.48538"/>
<path d="M132.671 -385.564C103.543 -376.516 77.7591 -354.235 56.0781 -321.577C34.3938 -288.915 16.8418 -245.911 4.19543 -195.521C-21.0969 -94.7446 -26.7304 35.4264 -6.67326 171.086C13.3839 306.746 55.3234 422.138 106.885 499.04C132.667 537.491 160.835 566.292 189.849 583.205C218.858 600.115 248.677 605.122 277.805 596.073C306.933 587.025 332.717 564.744 354.398 532.086C376.082 499.424 393.634 456.42 406.281 406.03C431.573 305.254 437.205 175.083 417.148 39.423C397.091 -96.2368 355.153 -211.629 303.591 -288.531C277.81 -326.982 249.641 -355.783 220.627 -372.696C191.618 -389.606 161.799 -394.613 132.671 -385.564Z" stroke="#ED5A00" stroke-width="1.48538"/>
<path d="M123.769 -382.719C65.6605 -363.645 21.8858 -291.985 -1.71231 -191.003C-25.2921 -90.0989 -28.6351 39.7574 -6.11778 174.631C16.3996 309.504 60.5023 423.787 113.574 499.531C166.686 575.333 228.597 612.301 286.706 593.228C344.814 574.153 388.588 502.494 412.186 401.512C435.766 300.608 439.109 170.751 416.591 35.8775C394.074 -98.9956 349.971 -213.278 296.9 -289.021C243.788 -364.823 181.878 -401.793 123.769 -382.719Z" stroke="#ED5A00" stroke-width="1.48538"/>
<path d="M114.894 -379.725C56.9534 -359.681 14.3235 -287.472 -7.5532 -186.394C-29.4133 -85.3939 -30.4661 44.1091 -5.49533 178.155C19.4755 312.2 65.7288 425.337 120.294 499.9C174.9 574.519 237.643 610.277 295.584 590.233C353.524 570.19 396.154 497.979 418.031 396.902C439.891 295.902 440.944 166.399 415.973 32.3538C391.002 -101.692 344.749 -214.83 290.184 -289.392C235.577 -364.011 172.835 -399.768 114.894 -379.725Z" stroke="#ED5A00" stroke-width="1.48538"/>
<path d="M106.045 -376.583C48.29 -355.576 6.81652 -282.839 -13.3323 -181.697C-33.466 -80.6306 -32.2281 48.4793 -4.81149 181.656C22.6051 314.833 70.9949 426.792 127.037 500.15C183.12 573.564 246.677 608.098 304.432 587.091C362.187 566.084 403.66 493.346 423.808 392.204C443.942 291.138 442.704 162.029 415.288 28.8518C387.871 -104.325 339.481 -216.284 283.439 -289.643C227.356 -363.056 163.8 -397.591 106.045 -376.583Z" stroke="#ED5A00" stroke-width="1.48538"/>
<path d="M97.2264 -373.295C39.675 -351.33 -0.628541 -278.087 -19.0434 -176.912C-37.4446 -75.8107 -33.9162 52.8659 -4.06232 185.134C25.7916 317.402 76.3028 428.147 133.804 500.279C191.348 572.465 255.7 605.766 313.251 583.802C370.802 561.837 411.105 488.594 429.52 387.418C447.921 286.317 444.393 157.64 414.539 25.3726C384.685 -106.895 334.174 -217.641 276.672 -289.773C219.128 -361.958 154.778 -395.259 97.2264 -373.295Z" stroke="#ED5A00" stroke-width="1.48538"/>
<path d="M88.4413 -369.86C31.111 -346.945 -8.01057 -273.218 -24.6859 -172.04C-41.349 -70.9344 -35.5311 57.2705 -3.24891 188.589C29.0334 319.907 81.6504 429.406 140.594 500.29C199.581 571.226 264.707 603.283 322.037 580.368C379.367 557.452 418.488 483.726 435.164 382.548C451.827 281.443 446.009 153.238 413.727 21.9194C381.445 -109.399 328.827 -218.898 269.884 -289.782C210.897 -360.718 145.772 -392.775 88.4413 -369.86Z" stroke="#ED5A00" stroke-width="1.48538"/>
<path d="M79.6884 -366.28C22.5969 -342.42 -15.3302 -268.234 -30.2609 -167.083C-45.181 -66.0048 -37.0764 61.6891 -2.37582 192.018C32.3249 322.347 87.0328 430.566 147.401 500.181C207.812 569.845 273.693 600.649 330.784 576.79C387.876 552.93 425.803 478.744 440.734 377.593C455.654 276.514 447.549 148.82 412.848 18.4906C378.148 -111.838 323.44 -220.056 263.072 -289.671C202.661 -359.335 136.78 -390.139 79.6884 -366.28Z" stroke="#ED5A00" stroke-width="1.48538"/>
<path d="M70.9788 -362.558C14.1434 -337.762 -22.5783 -263.138 -35.7602 -162.046C-48.9327 -61.025 -38.5429 66.1195 -1.43446 195.42C35.674 324.72 92.4554 431.625 154.229 499.949C216.046 568.321 282.663 597.862 339.498 573.066C396.334 548.27 433.054 473.645 446.236 372.553C459.409 271.532 449.019 144.388 411.91 15.0875C374.802 -114.213 318.021 -221.118 256.247 -289.442C194.43 -357.813 127.814 -387.354 70.9788 -362.558Z" stroke="#ED5A00" stroke-width="1.48538"/>
<path d="M62.3071 -358.693C5.74521 -332.968 -29.7594 -257.929 -41.1883 -156.926C-52.6092 -55.9925 -39.9379 70.5639 -0.432915 198.796C39.0721 327.027 97.9097 432.586 161.071 499.598C224.275 566.657 291.606 594.926 348.168 569.201C404.73 543.476 440.235 468.436 451.663 367.433C463.084 266.5 450.412 139.945 410.907 11.7133C371.402 -116.518 312.566 -222.078 249.405 -289.091C186.2 -356.15 118.869 -384.418 62.3071 -358.693Z" stroke="#ED5A00" stroke-width="1.48538"/>
<path d="M53.6808 -354.687C-2.59018 -328.041 -36.867 -252.61 -46.5395 -151.727C-56.2055 -50.9123 -41.2561 75.0169 0.633361 202.141C42.5229 329.266 103.399 433.447 167.927 499.128C232.5 564.853 300.525 591.84 356.796 565.194C413.067 538.548 447.343 463.117 457.016 362.234C466.682 261.42 451.732 135.491 409.843 8.3662C367.953 -118.758 307.077 -222.94 242.549 -288.62C177.976 -354.345 109.952 -381.333 53.6808 -354.687Z" stroke="#ED5A00" stroke-width="1.48538"/>
<path d="M45.101 -350.54C-10.8617 -322.981 -43.8997 -247.181 -51.813 -146.449C-59.721 -45.784 -42.4987 79.4803 1.76252 205.459C46.0237 331.437 108.92 434.209 174.796 498.537C240.717 562.909 309.416 588.608 365.378 561.048C421.341 533.489 454.38 457.688 462.293 356.956C470.201 256.291 452.978 131.028 408.717 5.0494C364.456 -120.929 301.561 -223.701 235.684 -288.03C169.763 -352.402 101.064 -378.1 45.101 -350.54Z" stroke="#ED5A00" stroke-width="1.48538"/>
<path d="M36.5669 -346.255C-19.0706 -317.791 -50.8607 -241.645 -57.0124 -141.094C-63.16 -40.6093 -43.6691 83.9507 2.95014 208.744C49.5695 333.538 114.465 434.87 181.67 497.827C248.919 560.826 318.271 585.227 373.909 556.763C429.546 528.299 461.336 452.152 467.488 351.602C473.635 251.117 454.144 126.556 407.525 1.76233C360.906 -123.031 296.01 -224.362 228.805 -287.319C161.556 -350.318 92.2044 -374.72 36.5669 -346.255Z" stroke="#ED5A00" stroke-width="1.48538"/>
<path d="M28.087 -341.833C-27.2081 -312.472 -57.7405 -236.003 -62.1288 -135.664C-66.5142 -35.3898 -44.7613 88.4289 4.20192 212C53.1652 335.571 120.042 435.43 188.554 496.997C257.111 558.604 327.095 581.702 382.39 552.341C437.685 522.981 468.217 446.511 472.605 346.172C476.99 245.898 455.238 122.079 406.274 -1.49193C357.311 -125.063 290.435 -224.922 221.922 -286.489C153.366 -348.095 83.3821 -371.193 28.087 -341.833Z" stroke="#ED5A00" stroke-width="1.48538"/>
<path d="M19.6602 -337.274C-35.2753 -307.026 -64.5394 -230.258 -67.1631 -130.162C-69.785 -30.1291 -45.7774 92.9115 5.51494 215.223C56.8073 337.534 125.645 435.89 195.444 496.048C265.288 556.243 335.881 578.03 390.817 547.782C445.753 517.535 475.017 440.766 477.641 340.669C480.263 240.636 456.255 117.597 404.962 -4.71444C353.67 -127.026 284.833 -225.383 215.034 -285.541C145.19 -345.736 74.596 -367.522 19.6602 -337.274Z" stroke="#ED5A00" stroke-width="1.48538"/>
<path d="M11.2898 -332.58C-43.2697 -301.454 -71.2583 -224.41 -72.1166 -124.587C-72.9742 -24.8257 -46.718 97.3978 6.88767 218.412C60.4934 339.426 131.27 436.251 202.335 494.981C273.444 553.748 344.627 574.215 399.187 543.089C453.746 511.963 481.734 434.919 482.592 335.096C483.45 235.335 457.193 113.111 403.588 -7.90334C349.982 -128.917 279.206 -225.742 208.141 -284.472C137.032 -343.238 65.8492 -363.706 11.2898 -332.58Z" stroke="#ED5A00" stroke-width="1.48538"/>
<path d="M2.97866 -327.754C-51.1879 -295.759 -77.8913 -218.463 -76.9839 -118.942C-76.077 -19.4832 -47.5812 101.887 8.32158 221.566C64.2244 341.246 136.919 436.509 209.227 493.793C281.581 551.113 353.331 570.257 407.498 538.263C461.664 506.268 488.368 428.971 487.46 329.45C486.553 229.991 458.057 108.622 402.154 -11.0578C346.251 -130.737 273.558 -226.001 201.249 -283.286C128.896 -340.605 57.1452 -359.748 2.97866 -327.754Z" stroke="#ED5A00" stroke-width="1.48538"/>
<path d="M-5.27058 -322.795C-59.0276 -289.942 -84.4378 -212.417 -81.7651 -113.23C-79.0941 -14.1034 -48.3665 106.376 9.81634 224.685C67.9992 342.994 142.589 436.667 216.119 492.489C289.695 548.344 361.991 566.157 415.748 533.304C469.505 500.451 494.914 422.925 492.242 323.738C489.571 224.611 458.843 104.132 400.66 -14.1771C342.477 -132.486 267.888 -226.159 194.357 -281.981C120.782 -337.836 48.4864 -355.649 -5.27058 -322.795Z" stroke="#ED5A00" stroke-width="1.48538"/>
<path d="M-13.4555 -317.707C-66.7864 -284.005 -90.8956 -206.275 -86.4585 -107.451C-82.024 -8.68717 -49.0755 110.865 11.3697 227.768C71.8149 344.671 148.278 436.724 223.008 491.065C297.783 545.44 370.602 561.916 423.933 528.214C477.264 494.512 501.373 416.782 496.936 317.958C492.502 219.194 459.552 99.6424 399.107 -17.2602C338.662 -134.163 262.199 -226.217 187.47 -280.558C112.695 -334.933 39.8755 -351.409 -13.4555 -317.707Z" stroke="#ED5A00" stroke-width="1.48538"/>
<path d="M-21.5742 -312.489C-74.4628 -277.949 -97.265 -200.037 -91.0647 -101.607C-84.8682 -3.23524 -49.7065 115.353 12.9825 230.814C75.6716 346.274 153.984 436.682 229.89 489.527C305.842 542.403 379.163 557.538 432.052 522.997C484.94 488.456 507.741 410.546 501.541 312.115C495.345 213.744 460.183 95.1554 397.494 -20.3051C334.805 -135.766 256.493 -226.173 180.587 -279.018C104.635 -331.895 31.3143 -347.03 -21.5742 -312.489Z" stroke="#ED5A00" stroke-width="1.48538"/>
<path d="M-29.6228 -307.145C-82.0526 -271.777 -103.54 -193.708 -95.5784 -95.7012C-87.6217 2.24774 -50.2589 119.837 14.6548 233.82C79.5686 347.803 159.707 436.536 236.767 487.868C313.872 539.231 387.673 553.021 440.102 517.652C492.532 482.283 514.018 404.215 506.057 306.208C498.1 208.259 460.737 90.67 395.823 -23.3132C330.91 -137.296 250.772 -226.029 173.712 -277.362C96.6064 -328.725 22.807 -342.514 -29.6228 -307.145Z" stroke="#ED5A00" stroke-width="1.48538"/>
<path d="M-37.6018 -301.675C-89.5568 -265.489 -109.722 -187.287 -100.002 -89.7332C-90.2875 7.76351 -50.7349 124.317 16.3839 236.788C83.5027 349.259 165.442 436.29 243.632 486.095C321.868 535.929 396.124 548.368 448.08 512.183C500.035 475.997 520.199 397.794 510.479 300.24C500.765 202.743 461.212 86.1902 394.093 -26.281C326.975 -138.752 245.035 -225.783 166.845 -275.588C88.6095 -325.422 14.3533 -337.861 -37.6018 -301.675Z" stroke="#ED5A00" stroke-width="1.48538"/>
<path d="M-45.5069 -296.08C-96.9712 -259.088 -115.808 -180.777 -104.333 -83.706C-92.8635 13.3088 -51.1333 128.792 18.1701 239.717C87.4736 350.642 171.19 435.944 250.486 484.206C329.828 532.495 404.518 543.581 455.983 506.589C507.447 469.597 526.284 391.285 514.809 294.213C503.34 197.199 461.609 81.717 392.306 -29.2079C323.002 -140.133 239.286 -225.437 159.99 -273.698C80.6479 -321.988 5.95754 -333.072 -45.5069 -296.08Z" stroke="#ED5A00" stroke-width="1.48538"/>
<path d="M-53.3334 -290.364C-104.291 -252.577 -121.795 -174.18 -108.568 -77.6215C-95.3473 18.8818 -51.4515 133.258 20.0154 242.603C91.4822 351.948 176.949 435.498 257.327 482.201C337.752 528.931 412.853 538.659 463.811 500.872C514.769 463.085 532.273 384.688 519.045 288.129C505.825 191.626 461.929 77.2499 390.463 -32.0951C318.996 -141.44 233.529 -224.99 153.15 -271.694C72.7257 -318.424 -2.37549 -328.151 -53.3334 -290.364Z" stroke="#ED5A00" stroke-width="1.48538"/>
<path d="M-61.083 -284.528C-111.519 -245.957 -127.684 -167.499 -112.708 -71.4815C-97.7403 24.4809 -51.6933 137.716 21.9153 245.448C95.5238 353.18 182.716 434.95 264.152 480.081C345.634 525.239 421.124 533.606 471.56 495.036C521.995 456.465 538.161 378.006 523.185 281.989C508.218 186.026 462.17 72.7913 388.561 -34.9405C314.953 -142.672 227.761 -224.443 146.326 -269.574C64.8429 -314.732 -10.6471 -323.098 -61.083 -284.528Z" stroke="#ED5A00" stroke-width="1.48538"/>
<path d="M-68.7499 -278.573C-118.648 -239.231 -133.47 -160.734 -116.75 -65.2878C-100.04 30.1045 -51.8556 142.164 23.8721 248.25C99.6 354.336 188.491 434.302 270.96 477.848C353.475 521.418 429.33 528.422 479.228 489.08C529.127 449.738 543.948 371.242 527.229 275.795C510.519 180.403 462.333 68.3429 386.605 -37.743C310.877 -143.829 221.988 -223.795 139.519 -267.34C57.0032 -310.911 -18.8516 -317.914 -68.7499 -278.573Z" stroke="#ED5A00" stroke-width="1.48538"/>
<path d="M-76.335 -272.5C-125.68 -232.399 -139.153 -153.889 -120.695 -59.042C-102.248 35.7513 -51.9406 146.602 25.8834 251.009C103.707 355.417 194.269 433.553 277.746 475.5C361.27 517.47 437.467 523.11 486.812 483.009C536.158 442.907 549.63 364.396 531.172 269.549C512.724 174.756 462.417 63.906 384.593 -40.5013C306.769 -144.909 216.207 -223.046 132.731 -264.993C49.2072 -306.963 -26.9896 -312.602 -76.335 -272.5Z" stroke="#ED5A00" stroke-width="1.48538"/>
<path d="M-83.8347 -266.312C-132.612 -225.464 -144.732 -146.964 -124.542 -52.7463C-104.362 41.4191 -51.9473 151.027 27.9493 253.724C107.846 356.422 200.052 432.707 284.511 473.042C369.017 513.399 445.532 517.67 494.31 476.822C543.087 435.974 555.208 357.474 535.018 263.255C514.838 169.09 462.422 59.4827 382.526 -43.2147C302.629 -145.912 210.424 -222.198 125.965 -262.532C41.4583 -302.89 -35.0574 -307.161 -83.8347 -266.312Z" stroke="#ED5A00" stroke-width="1.48538"/>
<path d="M-91.2438 -260.013C-139.438 -218.43 -150.203 -139.964 -128.286 -46.4032C-106.381 47.1057 -51.8733 155.437 30.0715 256.393C112.016 357.349 205.837 431.758 291.253 470.469C376.716 509.201 453.528 512.104 501.722 470.521C549.916 428.938 560.681 350.472 538.763 256.911C516.858 163.402 462.351 55.0719 380.406 -45.8841C298.462 -146.84 204.64 -221.25 119.224 -259.961C33.7612 -298.693 -43.0495 -301.596 -91.2438 -260.013Z" stroke="#ED5A00" stroke-width="1.48538"/>
<path d="M-98.5636 -253.602C-146.16 -211.297 -155.566 -132.889 -131.929 -40.0137C-108.305 52.8101 -51.7225 159.832 32.2455 259.016C116.214 358.2 211.622 430.711 297.968 467.786C384.363 504.881 461.447 506.415 509.043 464.11C556.64 421.805 566.045 343.397 542.408 250.521C518.783 157.697 462.201 50.6763 378.233 -48.5077C294.265 -147.692 198.857 -220.204 112.51 -257.278C26.1161 -294.374 -50.9671 -295.907 -98.5636 -253.602Z" stroke="#ED5A00" stroke-width="1.48538"/>
<path d="M-105.794 -247.08C-152.778 -204.066 -160.822 -125.741 -135.471 -33.579C-110.135 58.5316 -51.4947 164.211 34.4711 261.593C120.437 358.974 217.403 429.565 304.653 464.993C391.952 500.44 469.285 500.604 516.269 457.59C563.253 414.576 571.296 336.25 545.946 244.088C520.61 151.978 461.97 46.2992 376.004 -51.0825C290.039 -148.464 193.072 -219.056 105.821 -254.483C18.5223 -289.931 -58.8095 -290.094 -105.794 -247.08Z" stroke="#ED5A00" stroke-width="1.48538"/>
<path d="M-112.926 -240.453C-159.283 -196.743 -165.963 -118.524 -138.907 -27.1041C-111.867 64.2652 -51.1871 168.57 36.7502 264.12C124.687 359.67 223.183 428.32 311.311 462.089C399.488 495.877 477.045 494.671 523.402 450.961C569.76 407.251 576.44 329.032 549.384 237.612C522.344 146.242 461.663 41.9379 373.726 -53.612C285.789 -149.162 187.294 -217.812 99.1657 -251.582C10.9882 -285.37 -66.5689 -284.163 -112.926 -240.453Z" stroke="#ED5A00" stroke-width="1.48538"/>
<path d="M-119.963 -233.72C-165.679 -189.328 -170.993 -111.239 -142.241 -20.5884C-113.504 70.0118 -50.8026 172.911 39.0794 266.6C128.961 360.289 228.955 426.976 317.935 459.077C406.964 491.197 484.722 488.621 530.438 444.228C576.155 399.836 581.468 321.746 552.715 231.096C523.979 140.495 461.277 37.5968 371.395 -56.092C281.513 -149.781 181.52 -216.469 92.54 -248.57C3.51128 -280.689 -74.2467 -278.113 -119.963 -233.72Z" stroke="#ED5A00" stroke-width="1.48538"/>
<path d="M-126.9 -226.884C-171.961 -181.823 -175.906 -103.887 -145.466 -14.034C-115.042 75.7695 -50.3385 177.231 41.4609 269.03C133.26 360.83 234.722 425.534 324.526 455.958C414.379 486.398 492.315 482.453 537.376 437.392C582.437 392.331 586.383 314.395 555.943 224.541C525.519 134.738 460.814 33.2764 369.014 -58.5231C277.215 -150.322 175.754 -215.027 85.9506 -245.451C-3.90267 -275.891 -81.8389 -271.946 -126.9 -226.884Z" stroke="#ED5A00" stroke-width="1.48538"/>
</svg>
