<svg width="29" height="27" viewBox="0 0 29 27" fill="none" xmlns="http://www.w3.org/2000/svg">
<path d="M28.5718 1.30002L27.9349 6.23641C26.3779 6.13026 25.1747 6.41335 24.3255 7.08569C23.4762 7.75803 22.91 8.69577 22.6269 9.8989C22.3438 11.102 22.2907 12.4644 22.4677 13.986H28.5718V26.7782H16.8412V12.9244C16.8412 8.74885 17.8321 5.59946 19.8137 3.47628C21.8307 1.31771 24.7501 0.592291 28.5718 1.30002ZM12.2233 1.30002L11.5864 6.23641C10.0294 6.13026 8.82623 6.41335 7.97695 7.08569C7.12768 7.75803 6.5615 8.69577 6.27841 9.8989C5.99531 11.102 5.94223 12.4644 6.11917 13.986H12.2233V26.7782H0.492732V12.9244C0.492732 8.74885 1.48355 5.59946 3.46519 3.47628C5.48221 1.31771 8.40159 0.592291 12.2233 1.30002Z" fill="#ED5A00"/>
</svg>
