<svg width="237" height="70" viewBox="0 0 237 70" fill="none" xmlns="http://www.w3.org/2000/svg">
<path d="M15.2986 89.6666L0.588867 62.3333H15.2986H30.0084L44.7182 89.6666L30.0084 117H15.2986H0.588867L15.2986 89.6666Z" fill="url(#paint0_linear_8999_339)"/>
<path d="M68.8411 89.6666L54.1313 62.3333H68.8411H83.5509L98.2606 89.6666L83.5509 117H68.8411H54.1313L68.8411 89.6666Z" fill="url(#paint1_linear_8999_339)"/>
<path d="M122.386 89.6666L107.676 62.3333H122.386H137.095L151.805 89.6666L137.095 117H122.386H107.676L122.386 89.6666Z" fill="url(#paint2_linear_8999_339)"/>
<path d="M175.929 89.6666L161.219 62.3333H175.929H190.638L205.348 89.6666L190.638 117H175.929H161.219L175.929 89.6666Z" fill="url(#paint3_linear_8999_339)"/>
<path d="M229.473 89.6666L214.763 62.3333H229.473H244.183L258.892 89.6666L244.183 117H229.473H214.763L229.473 89.6666Z" fill="url(#paint4_linear_8999_339)"/>
<path d="M41.7767 35L27.0669 7.66663H41.7767H56.4864L71.1962 35L56.4864 62.3333H41.7767H27.0669L41.7767 35Z" fill="url(#paint5_linear_8999_339)"/>
<path d="M95.3186 35L80.6089 7.66663H95.3186H110.028L124.738 35L110.028 62.3333H95.3186H80.6089L95.3186 35Z" fill="url(#paint6_linear_8999_339)"/>
<path d="M148.863 35L134.153 7.66663H148.863H163.573L178.283 35L163.573 62.3333H148.863H134.153L148.863 35Z" fill="url(#paint7_linear_8999_339)"/>
<path d="M202.406 35L187.696 7.66663H202.406H217.116L231.826 35L217.116 62.3333H202.406H187.696L202.406 35Z" fill="url(#paint8_linear_8999_339)"/>
<path d="M14.7098 -19.6667L0 -47H14.7098H29.4195L44.1293 -19.6667L29.4195 7.66666H14.7098H0L14.7098 -19.6667Z" fill="url(#paint9_linear_8999_339)"/>
<path d="M68.2527 -19.6667L53.543 -47H68.2527H82.9625L97.6723 -19.6667L82.9625 7.66666H68.2527H53.543L68.2527 -19.6667Z" fill="url(#paint10_linear_8999_339)"/>
<path d="M121.798 -19.6667L107.088 -47H121.798H136.507L151.217 -19.6667L136.507 7.66666H121.798H107.088L121.798 -19.6667Z" fill="url(#paint11_linear_8999_339)"/>
<path d="M175.341 -19.6667L160.631 -47H175.341H190.05L204.76 -19.6667L190.05 7.66666H175.341H160.631L175.341 -19.6667Z" fill="url(#paint12_linear_8999_339)"/>
<path d="M228.884 -19.6667L214.174 -47H228.884H243.593L258.303 -19.6667L243.593 7.66666H228.884H214.174L228.884 -19.6667Z" fill="url(#paint13_linear_8999_339)"/>
<defs>
<linearGradient id="paint0_linear_8999_339" x1="0.588867" y1="89.6666" x2="44.7182" y2="89.6666" gradientUnits="userSpaceOnUse">
<stop offset="0.104149" stop-color="#ED5A00"/>
<stop offset="1" stop-color="#873300"/>
</linearGradient>
<linearGradient id="paint1_linear_8999_339" x1="54.1313" y1="89.6666" x2="98.2606" y2="89.6666" gradientUnits="userSpaceOnUse">
<stop offset="0.104149" stop-color="#ED5A00"/>
<stop offset="1" stop-color="#873300"/>
</linearGradient>
<linearGradient id="paint2_linear_8999_339" x1="107.676" y1="89.6666" x2="151.805" y2="89.6666" gradientUnits="userSpaceOnUse">
<stop offset="0.104149" stop-color="#ED5A00"/>
<stop offset="1" stop-color="#873300"/>
</linearGradient>
<linearGradient id="paint3_linear_8999_339" x1="161.219" y1="89.6666" x2="205.348" y2="89.6666" gradientUnits="userSpaceOnUse">
<stop offset="0.104149" stop-color="#ED5A00"/>
<stop offset="1" stop-color="#873300"/>
</linearGradient>
<linearGradient id="paint4_linear_8999_339" x1="214.763" y1="89.6666" x2="258.892" y2="89.6666" gradientUnits="userSpaceOnUse">
<stop offset="0.104149" stop-color="#ED5A00"/>
<stop offset="1" stop-color="#873300"/>
</linearGradient>
<linearGradient id="paint5_linear_8999_339" x1="27.0669" y1="35" x2="71.1962" y2="35" gradientUnits="userSpaceOnUse">
<stop offset="0.104149" stop-color="#ED5A00"/>
<stop offset="1" stop-color="#873300"/>
</linearGradient>
<linearGradient id="paint6_linear_8999_339" x1="80.6089" y1="35" x2="124.738" y2="35" gradientUnits="userSpaceOnUse">
<stop offset="0.104149" stop-color="#ED5A00"/>
<stop offset="1" stop-color="#873300"/>
</linearGradient>
<linearGradient id="paint7_linear_8999_339" x1="134.153" y1="35" x2="178.283" y2="35" gradientUnits="userSpaceOnUse">
<stop offset="0.104149" stop-color="#ED5A00"/>
<stop offset="1" stop-color="#873300"/>
</linearGradient>
<linearGradient id="paint8_linear_8999_339" x1="187.696" y1="35" x2="231.826" y2="35" gradientUnits="userSpaceOnUse">
<stop offset="0.104149" stop-color="#ED5A00"/>
<stop offset="1" stop-color="#873300"/>
</linearGradient>
<linearGradient id="paint9_linear_8999_339" x1="0" y1="-19.6667" x2="44.1293" y2="-19.6667" gradientUnits="userSpaceOnUse">
<stop offset="0.104149" stop-color="#ED5A00"/>
<stop offset="1" stop-color="#873300"/>
</linearGradient>
<linearGradient id="paint10_linear_8999_339" x1="53.543" y1="-19.6667" x2="97.6723" y2="-19.6667" gradientUnits="userSpaceOnUse">
<stop offset="0.104149" stop-color="#ED5A00"/>
<stop offset="1" stop-color="#873300"/>
</linearGradient>
<linearGradient id="paint11_linear_8999_339" x1="107.088" y1="-19.6667" x2="151.217" y2="-19.6667" gradientUnits="userSpaceOnUse">
<stop offset="0.104149" stop-color="#ED5A00"/>
<stop offset="1" stop-color="#873300"/>
</linearGradient>
<linearGradient id="paint12_linear_8999_339" x1="160.631" y1="-19.6667" x2="204.76" y2="-19.6667" gradientUnits="userSpaceOnUse">
<stop offset="0.104149" stop-color="#ED5A00"/>
<stop offset="1" stop-color="#873300"/>
</linearGradient>
<linearGradient id="paint13_linear_8999_339" x1="214.174" y1="-19.6667" x2="258.303" y2="-19.6667" gradientUnits="userSpaceOnUse">
<stop offset="0.104149" stop-color="#ED5A00"/>
<stop offset="1" stop-color="#873300"/>
</linearGradient>
</defs>
</svg>
